<svg width="17" height="16" viewBox="0 0 17 16" fill="none" xmlns="http://www.w3.org/2000/svg">
<path d="M2.55556 0L2.44444 0.555556L2.35556 0.822215C2.26667 1.01481 2.16296 1.2 2.04444 1.37778C1.88149 1.61482 1.7111 1.7926 1.53333 1.91111C1.31112 2.05926 1.03704 2.13333 0.711111 2.13333V3.55556C1.51111 3.55556 2.22222 3.22222 2.84444 2.55556V7.11111H4.26667V0H2.55556ZM12.0889 0V13.2889L10.2444 11.4445L9.24444 12.4444L12.2889 15.511L12.8 16L13.3111 15.511L16.3556 12.4444L15.3556 11.4445L13.5111 13.2889V0H12.0889ZM2.48889 8.53333C2.04444 8.53333 1.62962 8.64444 1.24444 8.86667C0.859264 9.08888 0.555556 9.3926 0.333333 9.77778C0.111111 10.163 0 10.5778 0 11.0222V11.3778H1.42222V11.0222C1.42222 10.7111 1.51852 10.4593 1.7111 10.2667C1.91852 10.0593 2.17778 9.95556 2.48889 9.95556H3.2C3.51111 9.95556 3.76296 10.0593 3.95556 10.2667C4.16296 10.4593 4.26667 10.7111 4.26667 11.0222C4.26667 11.1852 4.2074 11.3556 4.08889 11.5333C3.97038 11.6963 3.8074 11.8444 3.6 11.9778C3.22962 12.2 2.72593 12.4815 2.08889 12.8222C1.73333 13 1.47408 13.1333 1.31112 13.2222C0.911104 13.4444 0.622222 13.6519 0.444444 13.8445C0.311111 13.9925 0.2 14.1629 0.111111 14.3556C0.0370375 14.5482 0 14.7408 0 14.9333V15.6444H5.68889V14.2222H2.44444L2.84444 14.0223C3.45185 13.7111 3.94815 13.437 4.33334 13.2C4.73333 12.9482 5.05185 12.6444 5.28889 12.2889C5.55556 11.8889 5.68889 11.4667 5.68889 11.0222C5.68889 10.5778 5.57779 10.163 5.35555 9.77778C5.13334 9.3926 4.82963 9.08888 4.44444 8.86667C4.05926 8.64444 3.64444 8.53333 3.2 8.53333H2.48889Z" fill="#5E81F4"/>
</svg>
