<svg width="458" height="497" viewBox="0 0 458 497" fill="none" xmlns="http://www.w3.org/2000/svg">
<path d="M47.6562 418.717L43.2917 401.504C35.5533 398.224 27.6361 395.384 19.5777 392.996L19.0268 400.996L16.7927 392.182C6.7989 389.325 0 388.069 0 388.069C0 388.069 9.18141 422.991 28.4451 449.688L50.889 453.631L33.4529 456.145C35.8761 459.061 38.4802 461.821 41.2498 464.41C69.2698 490.419 100.479 502.352 110.957 491.063C121.436 479.774 107.215 449.539 79.195 423.533C70.5086 415.47 59.5967 409 48.6735 403.906L47.6562 418.717Z" fill="#F2F2F2"/>
<path d="M89.1629 400.02L94.3244 383.029C89.3957 376.222 84.0869 369.698 78.4233 363.488L73.8166 370.052L76.4593 361.352C69.3796 353.743 64.2094 349.153 64.2094 349.153C64.2094 349.153 54.02 383.795 56.7079 416.606L73.8832 431.582L57.6547 424.722C58.2225 428.471 59.0256 432.18 60.0591 435.829C70.6018 472.577 91.1502 498.924 105.955 494.677C120.76 490.429 124.215 457.196 113.673 420.448C110.405 409.055 104.407 397.876 97.6896 387.87L89.1629 400.02Z" fill="#F2F2F2"/>
<path d="M345.801 117.75H343.078V43.168C343.078 37.4991 341.962 31.8857 339.792 26.6483C337.623 21.4109 334.443 16.6521 330.435 12.6436C326.426 8.63509 321.667 5.45536 316.43 3.28596C311.193 1.11657 305.579 0 299.91 0H141.892C130.443 0 119.463 4.54804 111.368 12.6436C103.272 20.7392 98.7241 31.7191 98.7241 43.168V452.34C98.7241 458.009 99.8407 463.622 102.01 468.859C104.179 474.097 107.359 478.856 111.368 482.864C115.376 486.873 120.135 490.052 125.372 492.222C130.61 494.391 136.223 495.508 141.892 495.508H299.91C311.359 495.508 322.339 490.959 330.434 482.864C338.53 474.768 343.078 463.789 343.078 452.34V170.84H345.8L345.801 117.75Z" fill="#E6E6E6"/>
<path d="M301.652 11.2266H281.027C281.976 13.5523 282.338 16.0756 282.081 18.5742C281.825 21.0728 280.958 23.4699 279.557 25.5545C278.156 27.6391 276.264 29.3471 274.047 30.5281C271.83 31.709 269.357 32.3267 266.845 32.3266H176.318C173.807 32.3264 171.334 31.7087 169.117 30.5276C166.901 29.3466 165.009 27.6385 163.608 25.554C162.207 23.4694 161.34 21.0723 161.083 18.5738C160.827 16.0754 161.189 13.5522 162.138 11.2266H142.873C134.323 11.2266 126.123 14.623 120.078 20.6687C114.032 26.7144 110.635 34.9141 110.635 43.464V452.042C110.635 460.592 114.032 468.791 120.078 474.837C126.123 480.883 134.323 484.279 142.873 484.279H301.652C310.202 484.279 318.402 480.883 324.447 474.837C330.493 468.791 333.89 460.592 333.89 452.042V43.4634C333.889 34.9136 330.493 26.714 324.447 20.6685C318.401 14.6229 310.202 11.2266 301.652 11.2266Z" fill="white"/>
<path d="M202.03 173.983C202.029 171.127 202.781 168.322 204.209 165.849C205.638 163.376 207.692 161.322 210.166 159.896C207.694 158.468 204.888 157.715 202.033 157.715C199.177 157.715 196.372 158.466 193.898 159.894C191.425 161.322 189.371 163.375 187.943 165.848C186.516 168.321 185.764 171.127 185.764 173.982C185.764 176.838 186.516 179.643 187.943 182.116C189.371 184.589 191.425 186.643 193.898 188.071C196.372 189.498 199.177 190.25 202.033 190.249C204.888 190.249 207.694 189.497 210.166 188.069C207.693 186.642 205.638 184.59 204.21 182.117C202.781 179.644 202.029 176.839 202.03 173.983Z" fill="#CCCCCC"/>
<path d="M222.48 173.983C222.479 171.127 223.231 168.322 224.659 165.848C226.088 163.375 228.142 161.322 230.616 159.896C228.144 158.468 225.338 157.715 222.483 157.715C219.627 157.715 216.822 158.466 214.348 159.894C211.875 161.322 209.821 163.375 208.393 165.848C206.965 168.321 206.214 171.127 206.214 173.982C206.214 176.838 206.965 179.643 208.393 182.116C209.821 184.589 211.875 186.643 214.348 188.071C216.822 189.498 219.627 190.25 222.483 190.249C225.338 190.249 228.144 189.497 230.616 188.069C228.143 186.642 226.088 184.59 224.66 182.117C223.231 179.644 222.479 176.839 222.48 173.983Z" fill="#CCCCCC"/>
<path d="M242.465 190.25C251.449 190.25 258.732 182.967 258.732 173.983C258.732 164.998 251.449 157.715 242.465 157.715C233.481 157.715 226.198 164.998 226.198 173.983C226.198 182.967 233.481 190.25 242.465 190.25Z" fill="#1B51E5"/>
<path d="M269.652 224.791H174.844C173.941 224.79 173.076 224.431 172.437 223.793C171.799 223.154 171.44 222.289 171.439 221.387V126.578C171.44 125.676 171.799 124.811 172.437 124.172C173.076 123.534 173.941 123.175 174.844 123.174H269.652C270.554 123.175 271.42 123.534 272.058 124.172C272.696 124.811 273.055 125.676 273.056 126.578V221.387C273.055 222.289 272.696 223.154 272.058 223.793C271.42 224.431 270.554 224.79 269.652 224.791ZM174.844 124.537C174.302 124.537 173.783 124.753 173.4 125.135C173.017 125.518 172.802 126.038 172.801 126.579V221.387C172.802 221.929 173.017 222.448 173.4 222.831C173.783 223.214 174.302 223.429 174.844 223.43H269.652C270.193 223.429 270.712 223.214 271.095 222.831C271.478 222.448 271.694 221.929 271.694 221.387V126.579C271.694 126.038 271.478 125.518 271.095 125.135C270.712 124.753 270.193 124.537 269.652 124.537H174.844Z" fill="#CCCCCC"/>
<path d="M290.821 297.466H145.414V298.828H290.821V297.466Z" fill="#CCCCCC"/>
<path d="M150.006 288.963C152.542 288.963 154.598 286.907 154.598 284.371C154.598 281.835 152.542 279.779 150.006 279.779C147.47 279.779 145.414 281.835 145.414 284.371C145.414 286.907 147.47 288.963 150.006 288.963Z" fill="#1B51E5"/>
<path d="M290.821 343.384H145.414V344.746H290.821V343.384Z" fill="#CCCCCC"/>
<path d="M150.006 334.882C152.542 334.882 154.598 332.826 154.598 330.289C154.598 327.753 152.542 325.697 150.006 325.697C147.47 325.697 145.414 327.753 145.414 330.289C145.414 332.826 147.47 334.882 150.006 334.882Z" fill="#1B51E5"/>
<path d="M288.16 395.673H242.207C241.413 395.672 240.652 395.356 240.091 394.795C239.53 394.234 239.214 393.473 239.213 392.679V376.573C239.214 375.779 239.53 375.018 240.091 374.457C240.652 373.895 241.413 373.58 242.207 373.579H288.16C288.954 373.58 289.715 373.895 290.276 374.457C290.837 375.018 291.153 375.779 291.154 376.573V392.679C291.153 393.473 290.837 394.234 290.276 394.795C289.715 395.356 288.954 395.672 288.16 395.673Z" fill="#1B51E5"/>
<path d="M164.985 288.963C167.521 288.963 169.577 286.907 169.577 284.371C169.577 281.835 167.521 279.779 164.985 279.779C162.449 279.779 160.393 281.835 160.393 284.371C160.393 286.907 162.449 288.963 164.985 288.963Z" fill="#1B51E5"/>
<path d="M179.964 288.963C182.5 288.963 184.556 286.907 184.556 284.371C184.556 281.835 182.5 279.779 179.964 279.779C177.428 279.779 175.372 281.835 175.372 284.371C175.372 286.907 177.428 288.963 179.964 288.963Z" fill="#1B51E5"/>
<path d="M164.985 334.882C167.521 334.882 169.577 332.826 169.577 330.289C169.577 327.753 167.521 325.697 164.985 325.697C162.449 325.697 160.393 327.753 160.393 330.289C160.393 332.826 162.449 334.882 164.985 334.882Z" fill="#1B51E5"/>
<path d="M179.964 334.882C182.5 334.882 184.556 332.826 184.556 330.289C184.556 327.753 182.5 325.697 179.964 325.697C177.428 325.697 175.372 327.753 175.372 330.289C175.372 332.826 177.428 334.882 179.964 334.882Z" fill="#1B51E5"/>
<path d="M375.691 325.648C376.017 325.798 376.331 325.973 376.629 326.172L406.47 313.436L407.536 305.575L419.459 305.502L418.755 323.531L379.368 333.947C379.285 334.221 379.186 334.49 379.07 334.751C378.501 335.966 377.585 336.986 376.438 337.682C375.291 338.379 373.963 338.721 372.623 338.665C371.282 338.61 369.987 338.159 368.902 337.37C367.816 336.582 366.988 335.49 366.521 334.232C366.054 332.974 365.969 331.606 366.277 330.299C366.585 328.993 367.271 327.807 368.251 326.89C369.231 325.973 370.46 325.366 371.783 325.145C373.107 324.924 374.466 325.099 375.691 325.648Z" fill="#FFB8B8"/>
<path d="M423.795 489.024H415.639L411.758 457.562L423.797 457.563L423.795 489.024Z" fill="#FFB8B8"/>
<path d="M409.812 486.693H425.543V496.598H399.908C399.908 493.971 400.951 491.452 402.809 489.594C404.666 487.737 407.186 486.693 409.812 486.693Z" fill="#2F2E41"/>
<path d="M455.518 486.72L447.401 487.519L440.454 456.59L452.434 455.41L455.518 486.72Z" fill="#FFB8B8"/>
<path d="M441.374 485.771L457.029 484.229L458 494.086L432.488 496.599C432.361 495.304 432.489 493.997 432.867 492.753C433.245 491.508 433.864 490.35 434.689 489.344C435.514 488.339 436.529 487.506 437.676 486.893C438.823 486.28 440.08 485.898 441.374 485.771Z" fill="#2F2E41"/>
<path d="M426.066 272.206C435.091 272.206 442.407 264.889 442.407 255.865C442.407 246.84 435.091 239.524 426.066 239.524C417.041 239.524 409.725 246.84 409.725 255.865C409.725 264.889 417.041 272.206 426.066 272.206Z" fill="#FFB8B8"/>
<path d="M413.816 482.662C413.115 482.663 412.436 482.418 411.899 481.968C411.361 481.518 411 480.892 410.879 480.202C406.657 456.766 392.857 380.134 392.527 378.011C392.519 377.963 392.516 377.913 392.516 377.864V372.15C392.516 371.942 392.581 371.739 392.702 371.57L394.525 369.017C394.612 368.894 394.725 368.793 394.857 368.72C394.989 368.648 395.136 368.607 395.286 368.601C405.68 368.114 439.719 366.685 441.363 368.74C443.015 370.805 442.431 377.061 442.298 378.294L442.304 378.423L457.597 476.222C457.716 477.002 457.524 477.797 457.062 478.437C456.599 479.076 455.903 479.507 455.125 479.638L445.573 481.212C444.862 481.326 444.133 481.181 443.52 480.803C442.906 480.426 442.448 479.84 442.23 479.154C439.276 469.714 429.37 437.958 425.937 425.671C425.915 425.593 425.866 425.526 425.799 425.481C425.731 425.437 425.65 425.419 425.57 425.43C425.49 425.442 425.417 425.482 425.364 425.543C425.312 425.604 425.283 425.682 425.284 425.763C425.456 437.476 425.871 467.361 426.013 477.683L426.029 478.794C426.035 479.547 425.759 480.275 425.255 480.834C424.751 481.392 424.055 481.742 423.306 481.813L414.096 482.649C414.002 482.658 413.908 482.662 413.816 482.662Z" fill="#2F2E41"/>
<path d="M415.695 278.631C412.843 280.326 411.137 283.441 410.158 286.611C408.345 292.48 407.254 298.548 406.908 304.681L405.873 323.044L393.062 371.726C404.166 381.12 410.571 378.985 425.517 371.301C440.464 363.616 442.172 373.863 442.172 373.863L445.16 332.441L449.431 287.178C448.472 286.024 447.387 284.98 446.196 284.068C442.249 280.999 437.657 278.865 432.766 277.829C427.874 276.792 422.811 276.879 417.959 278.083L415.695 278.631Z" fill="#1B51E5"/>
<path d="M411.534 335.48C411.879 335.61 412.213 335.767 412.533 335.949L442.039 321.18L442.528 313.18L454.699 312.34L455.352 330.579L415.921 343.618C415.599 344.999 414.864 346.25 413.814 347.203C412.765 348.156 411.449 348.767 410.044 348.955C408.638 349.142 407.209 348.897 405.946 348.253C404.683 347.608 403.646 346.594 402.973 345.346C402.301 344.098 402.024 342.675 402.18 341.265C402.335 339.856 402.917 338.527 403.846 337.456C404.775 336.385 406.009 335.623 407.382 335.27C408.755 334.917 410.204 334.99 411.534 335.48Z" fill="#FFB8B8"/>
<path d="M449.217 287.385C456.477 289.947 457.756 317.706 457.756 317.706C449.215 313.009 438.966 320.695 438.966 320.695C438.966 320.695 436.831 313.436 434.269 304.041C433.495 301.398 433.402 298.603 434 295.915C434.597 293.227 435.865 290.734 437.685 288.668C437.685 288.668 441.957 284.821 449.217 287.385Z" fill="#1B51E5"/>
<path d="M440.718 260.186C438.682 258.557 435.904 261.518 435.904 261.518L434.275 246.859C434.275 246.859 424.095 248.078 417.58 246.452C411.065 244.825 410.047 252.356 410.047 252.356C409.711 249.314 409.643 246.248 409.844 243.194C410.251 239.529 415.544 235.865 424.91 233.421C434.275 230.978 439.162 241.565 439.162 241.565C445.678 244.823 442.754 261.815 440.718 260.186Z" fill="#2F2E41"/>
</svg>
