<svg width="525" height="345" viewBox="0 0 525 345" fill="none" xmlns="http://www.w3.org/2000/svg">
<path d="M441.819 268.468C441.819 268.468 435.933 264.581 430.1 267.346C430.1 267.346 431.896 270.807 439.281 270.481L441.819 268.468Z" fill="#1B51E5"/>
<path d="M442.566 268.674C442.566 268.674 444.357 275.499 439.865 280.143C439.865 280.143 437.164 277.33 439.865 270.438L442.566 268.674Z" fill="#1B51E5"/>
<path d="M449.883 262.122C449.883 262.122 449.448 256.318 436.35 258.244C436.35 258.244 436.288 261.988 440.885 263.761C445.482 265.534 447.59 264.039 449.883 262.122Z" fill="#1B51E5"/>
<path d="M450.707 262.084C450.707 262.084 456.243 263.862 451.306 276.156C451.306 276.156 447.652 275.341 446.996 270.447C446.34 265.554 448.284 263.867 450.707 262.084Z" fill="#1B51E5"/>
<path d="M458.101 253.849C458.101 253.849 458.853 244.297 445.468 245.275C445.468 245.275 444.51 253.902 455.74 256.145L458.101 253.849Z" fill="#1B51E5"/>
<path d="M466.947 243.065C466.947 243.065 465.112 232.238 451.732 235.463C451.732 235.463 451.684 244.824 464.763 245.644L466.947 243.065Z" fill="#1B51E5"/>
<path d="M473.412 231.917C473.412 231.917 470.337 221.372 457.081 224.526C457.081 224.526 460.237 234.011 472.531 233.863L473.412 231.917Z" fill="#1B51E5"/>
<path d="M479.551 221.027C479.551 221.027 476.549 210.085 463.748 213.358C463.748 213.358 468.019 223.754 478.704 222.877L479.551 221.027Z" fill="#1B51E5"/>
<path d="M483.507 210.684C483.507 210.684 481.199 197.302 469.264 200.264C469.264 200.264 472.732 212.438 482.631 212.635L483.507 210.684Z" fill="#1B51E5"/>
<path d="M487.218 198.189C487.218 198.189 484.446 184.701 472.373 188.603C472.373 188.603 477.104 201.352 486.361 200.034L487.218 198.189Z" fill="#1B51E5"/>
<path d="M489.498 186.561C489.498 186.561 485.097 173.069 475.763 173.433C475.763 173.433 480.26 187.683 488.717 189.25L489.498 186.561Z" fill="#1B51E5"/>
<path d="M490.973 175.211C490.973 175.211 486.184 158.973 478.589 160.224C478.589 160.224 481.903 172.637 490.705 177.742L490.973 175.211Z" fill="#1B51E5"/>
<path d="M491.806 161.671C491.806 161.671 487.314 148.141 479.834 147.599C479.834 147.599 482.889 160.914 491.658 165.189L491.806 161.671Z" fill="#1B51E5"/>
<path d="M492.711 149.037C492.711 149.037 487.113 135.492 482.176 135.185C482.176 135.185 484.608 148.524 492.232 151.261L492.711 149.037Z" fill="#1B51E5"/>
<path d="M493.329 137.285C493.329 137.285 489.886 122.575 484.939 121.353C484.939 121.353 485.614 133.388 492.831 138.387L493.329 137.285Z" fill="#1B51E5"/>
<path d="M495.197 121.89C495.197 121.89 491.576 110.161 487.568 108.374C487.568 108.374 488.358 122.201 494.273 124.756L495.197 121.89Z" fill="#1B51E5"/>
<path d="M496.744 111.824L497.472 91.1476C497.472 91.1476 489.977 106.734 496.203 115.453L496.744 111.824Z" fill="#1B51E5"/>
<path d="M502.529 91.2579C502.529 91.2579 507.926 76.16 509.233 75.3165C509.233 75.3165 498.65 85.1133 499.684 97.714L502.529 91.2579Z" fill="#1B51E5"/>
<path d="M458.465 253.777C458.465 253.777 467.957 252.536 467.675 265.961C467.675 265.961 459.098 267.361 456.296 256.255L458.465 253.777Z" fill="#1B51E5"/>
<path d="M467.397 242.701C467.397 242.701 478.364 242.667 477.454 256.409C477.454 256.409 468.244 258.058 465.208 245.299L467.397 242.701Z" fill="#1B51E5"/>
<path d="M473.517 232.803C473.517 232.803 483.473 228.13 489.843 240.194C489.843 240.194 480.648 244.086 472.636 234.754L473.517 232.803Z" fill="#1B51E5"/>
<path d="M479.772 221.128C479.772 221.128 489.967 216.157 495.954 227.939C495.954 227.939 485.332 231.6 478.929 222.992L479.772 221.128Z" fill="#1B51E5"/>
<path d="M483.378 210.976C483.378 210.976 493.19 201.596 501.02 211.082C501.02 211.082 490.997 218.803 482.928 213.066L483.378 210.976Z" fill="#1B51E5"/>
<path d="M486.663 197.868C486.663 197.868 496.533 188.282 504.301 198.309C504.301 198.309 493.224 206.183 486.309 199.881L486.663 197.868Z" fill="#1B51E5"/>
<path d="M488.507 186.178C488.507 186.178 496.112 174.195 505.067 176.87C505.067 176.87 497.175 189.557 488.593 188.991L488.507 186.178Z" fill="#1B51E5"/>
<path d="M490.748 175.135C490.748 175.135 498.41 160.046 505.661 162.673C505.661 162.673 500.134 174.272 490.552 177.68L490.748 175.135Z" fill="#1B51E5"/>
<path d="M491.28 160.885C491.28 160.885 499.157 149.008 506.537 150.46C506.537 150.46 500.096 162.505 490.513 164.322L491.28 160.885Z" fill="#1B51E5"/>
<path d="M491.893 148.773C491.893 148.773 497.998 135.444 502.96 135.353C502.96 135.353 500.029 148.586 492.304 151.036L491.893 148.773Z" fill="#1B51E5"/>
<path d="M493.09 136.997C493.09 136.997 499.876 123.5 504.976 123.471C504.976 123.471 501.504 135.013 493.315 138.181L493.09 136.997Z" fill="#1B51E5"/>
<path d="M494.11 122.733C494.11 122.733 499.186 111.566 503.391 110.3C503.391 110.3 500.853 123.912 494.67 125.695L494.11 122.733Z" fill="#1B51E5"/>
<path d="M497.347 111.417L508.692 94.1193C508.692 94.1193 505.785 111.182 495.69 114.729L497.347 111.417Z" fill="#1B51E5"/>
<path d="M505.134 92.6526C505.134 92.6526 518.318 83.546 518.797 82.0746C518.797 82.0746 512.093 94.8286 499.641 97.0813L505.134 92.6526Z" fill="#1B51E5"/>
<path d="M505.924 88.5546C505.924 88.5546 521.062 73.9888 524.927 74.0032C524.927 74.0032 512.442 74.5736 505.56 87.7782L505.924 88.5546Z" fill="#1B51E5"/>
<path d="M494.258 124.895L494.809 124.967C497.654 102.684 501.801 89.4988 506.485 87.8836L506.303 87.3564C501.336 89.0819 497.16 102.066 494.258 124.895Z" fill="#444053"/>
<path d="M490.073 178.183L490.906 178.25C491.083 176.17 491.217 174.042 491.308 171.919C492.103 153.475 493.334 136.537 494.953 123.84L494.474 123.241C492.85 135.967 491.27 153.413 490.475 171.885C490.384 173.994 490.25 176.112 490.073 178.183Z" fill="#444053"/>
<path d="M426.283 279.099C426.427 279.036 441.096 272.48 456.32 256.845C465.239 247.688 472.651 237.172 478.277 225.691C485.317 211.345 489.608 193.717 491.045 176.592L490.178 176.999C486.946 215.439 469.461 241.704 455.558 256.011C440.483 271.507 425.977 277.996 425.833 278.059L426.283 279.099Z" fill="#444053"/>
<path d="M464.265 0H4.09938C3.01216 0 1.96946 0.43225 1.20068 1.20167C0.431897 1.97109 0 3.01465 0 4.10277V16.0564H468.364V4.10277C468.364 3.01465 467.932 1.97109 467.163 1.20167C466.395 0.43225 465.352 0 464.265 0Z" fill="#3F3D56"/>
<path d="M0 16.0564V285.056C0 287.25 0.87086 289.355 2.421 290.906C3.97114 292.457 6.07358 293.329 8.26581 293.329H460.098C462.291 293.329 464.393 292.457 465.943 290.906C467.493 289.355 468.364 287.25 468.364 285.056V16.0564H0Z" fill="white"/>
<path opacity="0.8" d="M7.41816 9.82553C8.47612 9.82553 9.33376 8.96718 9.33376 7.90835C9.33376 6.84952 8.47612 5.99117 7.41816 5.99117C6.36021 5.99117 5.50256 6.84952 5.50256 7.90835C5.50256 8.96718 6.36021 9.82553 7.41816 9.82553Z" fill="#FA5959"/>
<path opacity="0.8" d="M12.6861 9.82553C13.7441 9.82553 14.6017 8.96718 14.6017 7.90835C14.6017 6.84952 13.7441 5.99117 12.6861 5.99117C11.6282 5.99117 10.7705 6.84952 10.7705 7.90835C10.7705 8.96718 11.6282 9.82553 12.6861 9.82553Z" fill="#FED253"/>
<path opacity="0.8" d="M17.954 9.82553C19.0119 9.82553 19.8696 8.96718 19.8696 7.90835C19.8696 6.84952 19.0119 5.99117 17.954 5.99117C16.896 5.99117 16.0384 6.84952 16.0384 7.90835C16.0384 8.96718 16.896 9.82553 17.954 9.82553Z" fill="#8CCF4D"/>
<path opacity="0.05" d="M419.952 60.9089H43.5369V226.563H419.952V60.9089Z" fill="black"/>
<path d="M417.079 62.1647H46.4102V224.167H417.079V62.1647Z" fill="#3F3D56"/>
<path d="M147.458 103.859C140.165 103.859 133.035 106.023 126.971 110.078C120.907 114.134 116.181 119.897 113.39 126.641C110.599 133.385 109.868 140.805 111.291 147.964C112.714 155.123 116.226 161.699 121.383 166.861C126.54 172.022 133.111 175.537 140.264 176.961C147.417 178.385 154.832 177.654 161.57 174.861C168.308 172.067 174.067 167.337 178.119 161.268C182.171 155.199 184.333 148.064 184.333 140.764C184.333 135.918 183.38 131.119 181.526 126.641C179.673 122.163 176.957 118.095 173.533 114.668C170.109 111.241 166.044 108.523 161.57 106.668C157.096 104.813 152.301 103.859 147.458 103.859ZM154.072 141.651V159.126H141.036V141.651C139.232 140.284 137.903 138.385 137.235 136.222C136.568 134.058 136.596 131.739 137.316 129.593C138.037 127.446 139.412 125.58 141.249 124.258C143.086 122.936 145.291 122.225 147.554 122.225C149.816 122.225 152.022 122.936 153.859 124.258C155.695 125.58 157.071 127.446 157.791 129.593C158.511 131.739 158.54 134.058 157.873 136.222C157.205 138.385 155.876 140.284 154.072 141.651Z" fill="#1B51E5"/>
<path opacity="0.05" d="M147.458 103.859C140.165 103.859 133.035 106.023 126.971 110.078C120.907 114.134 116.181 119.897 113.39 126.641C110.599 133.385 109.868 140.805 111.291 147.964C112.714 155.123 116.226 161.699 121.383 166.861C126.54 172.022 133.111 175.537 140.264 176.961C147.417 178.385 154.832 177.654 161.57 174.861C168.308 172.067 174.067 167.337 178.119 161.268C182.171 155.199 184.333 148.064 184.333 140.764C184.333 135.918 183.38 131.119 181.526 126.641C179.673 122.163 176.957 118.095 173.533 114.668C170.109 111.241 166.044 108.523 161.57 106.668C157.096 104.813 152.301 103.859 147.458 103.859ZM154.072 141.651V159.126H141.036V141.651C139.232 140.284 137.903 138.385 137.235 136.222C136.568 134.058 136.596 131.739 137.316 129.593C138.037 127.446 139.412 125.58 141.249 124.258C143.086 122.936 145.291 122.225 147.554 122.225C149.816 122.225 152.022 122.936 153.859 124.258C155.695 125.58 157.071 127.446 157.791 129.593C158.511 131.739 158.54 134.058 157.873 136.222C157.205 138.385 155.876 140.284 154.072 141.651Z" fill="black"/>
<path d="M147.458 93.314C138.081 93.314 128.915 96.0969 121.118 101.311C113.321 106.525 107.244 113.935 103.656 122.606C100.068 131.276 99.1286 140.817 100.958 150.021C102.787 159.226 107.303 167.681 113.933 174.317C120.564 180.953 129.012 185.472 138.209 187.303C147.406 189.134 156.938 188.194 165.602 184.603C174.265 181.011 181.669 174.929 186.879 167.126C192.089 159.323 194.869 150.149 194.869 140.764C194.869 128.18 189.874 116.111 180.983 107.212C172.092 98.3132 160.032 93.314 147.458 93.314ZM155.959 141.905V164.37H139.197V141.905C136.877 140.148 135.167 137.705 134.308 134.923C133.45 132.14 133.486 129.158 134.412 126.398C135.338 123.637 137.107 121.237 139.47 119.537C141.832 117.837 144.668 116.922 147.578 116.922C150.488 116.922 153.324 117.837 155.686 119.537C158.049 121.237 159.818 123.637 160.744 126.398C161.67 129.158 161.706 132.14 160.848 134.923C159.989 137.705 158.279 140.148 155.959 141.905Z" fill="#1B51E5"/>
<path d="M367.752 134.538H214.504V150.834H367.752V134.538Z" fill="white"/>
<path d="M367.752 164.255H334.708V180.551H367.752V164.255Z" fill="#1B51E5"/>
<path d="M229.589 142.442H226.817L229.283 139.978C229.327 139.933 229.352 139.872 229.352 139.808C229.352 139.745 229.327 139.684 229.283 139.638C229.261 139.616 229.234 139.598 229.205 139.586C229.176 139.573 229.145 139.567 229.113 139.567C229.081 139.567 229.05 139.573 229.021 139.586C228.992 139.598 228.965 139.616 228.943 139.638L226.477 142.106V139.326C226.477 139.263 226.451 139.202 226.406 139.157C226.362 139.112 226.301 139.087 226.237 139.087C226.174 139.088 226.114 139.114 226.069 139.158C226.025 139.203 225.999 139.263 225.998 139.326V142.106L223.536 139.624C223.514 139.601 223.487 139.583 223.458 139.571C223.429 139.559 223.398 139.553 223.366 139.553C223.335 139.553 223.303 139.559 223.274 139.571C223.245 139.583 223.218 139.601 223.196 139.624C223.152 139.669 223.127 139.73 223.127 139.794C223.127 139.857 223.152 139.918 223.196 139.964L225.663 142.427H222.885C222.822 142.429 222.762 142.454 222.717 142.499C222.672 142.544 222.647 142.604 222.645 142.667C222.645 142.731 222.671 142.792 222.716 142.837C222.76 142.882 222.821 142.907 222.885 142.907H225.663L223.196 145.375C223.152 145.421 223.127 145.482 223.127 145.545C223.127 145.609 223.152 145.67 223.196 145.715C223.242 145.759 223.303 145.783 223.366 145.783C223.429 145.783 223.49 145.759 223.536 145.715L225.998 143.247V146.022C225.998 146.086 226.023 146.147 226.068 146.192C226.113 146.237 226.174 146.262 226.237 146.262C226.301 146.262 226.362 146.237 226.406 146.192C226.451 146.147 226.477 146.086 226.477 146.022V143.247L228.943 145.715C228.989 145.759 229.05 145.783 229.113 145.783C229.176 145.783 229.237 145.759 229.283 145.715C229.327 145.67 229.352 145.609 229.352 145.545C229.352 145.482 229.327 145.421 229.283 145.375L226.817 142.907H229.589C229.653 142.907 229.714 142.882 229.759 142.837C229.804 142.792 229.829 142.731 229.829 142.667C229.825 142.606 229.798 142.549 229.754 142.507C229.709 142.465 229.651 142.442 229.589 142.442Z" fill="#1B51E5"/>
<path d="M239.646 142.442H236.874L239.34 139.978C239.384 139.933 239.409 139.872 239.409 139.808C239.409 139.745 239.384 139.684 239.34 139.638C239.318 139.616 239.291 139.598 239.262 139.586C239.233 139.573 239.201 139.567 239.17 139.567C239.138 139.567 239.107 139.573 239.078 139.586C239.049 139.598 239.022 139.616 239 139.638L236.534 142.106V139.326C236.534 139.263 236.508 139.202 236.463 139.157C236.418 139.112 236.358 139.087 236.294 139.087C236.231 139.088 236.171 139.114 236.126 139.158C236.081 139.203 236.056 139.263 236.055 139.326V142.106L233.593 139.624C233.571 139.601 233.544 139.583 233.515 139.571C233.486 139.559 233.455 139.553 233.423 139.553C233.391 139.553 233.36 139.559 233.331 139.571C233.302 139.583 233.275 139.601 233.253 139.624C233.209 139.669 233.184 139.73 233.184 139.794C233.184 139.857 233.209 139.918 233.253 139.964L235.719 142.427H232.942C232.879 142.429 232.818 142.454 232.774 142.499C232.729 142.544 232.704 142.604 232.702 142.667C232.702 142.731 232.728 142.792 232.772 142.837C232.817 142.882 232.878 142.907 232.942 142.907H235.719L233.253 145.375C233.209 145.421 233.184 145.482 233.184 145.545C233.184 145.609 233.209 145.67 233.253 145.715C233.299 145.759 233.36 145.783 233.423 145.783C233.486 145.783 233.547 145.759 233.593 145.715L236.055 143.247V146.022C236.055 146.086 236.08 146.147 236.125 146.192C236.17 146.237 236.231 146.262 236.294 146.262C236.358 146.262 236.418 146.237 236.463 146.192C236.508 146.147 236.534 146.086 236.534 146.022V143.247L239 145.715C239.046 145.759 239.107 145.783 239.17 145.783C239.233 145.783 239.294 145.759 239.34 145.715C239.384 145.67 239.409 145.609 239.409 145.545C239.409 145.482 239.384 145.421 239.34 145.375L236.874 142.907H239.646C239.71 142.907 239.771 142.882 239.816 142.837C239.861 142.792 239.886 142.731 239.886 142.667C239.882 142.606 239.855 142.549 239.811 142.507C239.766 142.465 239.707 142.442 239.646 142.442Z" fill="#1B51E5"/>
<path d="M249.703 142.442H246.93L249.397 139.978C249.441 139.933 249.466 139.872 249.466 139.808C249.466 139.745 249.441 139.684 249.397 139.638C249.375 139.616 249.348 139.598 249.319 139.586C249.29 139.573 249.258 139.567 249.227 139.567C249.195 139.567 249.164 139.573 249.135 139.586C249.105 139.598 249.079 139.616 249.057 139.638L246.59 142.106V139.326C246.59 139.263 246.565 139.202 246.52 139.157C246.475 139.112 246.414 139.087 246.351 139.087C246.288 139.088 246.228 139.114 246.183 139.158C246.138 139.203 246.113 139.263 246.112 139.326V142.106L243.65 139.624C243.628 139.601 243.601 139.583 243.572 139.571C243.543 139.559 243.512 139.553 243.48 139.553C243.448 139.553 243.417 139.559 243.388 139.571C243.359 139.583 243.332 139.601 243.31 139.624C243.266 139.669 243.241 139.73 243.241 139.794C243.241 139.857 243.266 139.918 243.31 139.964L245.776 142.427H242.999C242.936 142.429 242.875 142.454 242.831 142.499C242.786 142.544 242.76 142.604 242.759 142.667C242.759 142.731 242.784 142.792 242.829 142.837C242.874 142.882 242.935 142.907 242.999 142.907H245.776L243.31 145.375C243.266 145.421 243.241 145.482 243.241 145.545C243.241 145.609 243.266 145.67 243.31 145.715C243.356 145.759 243.417 145.783 243.48 145.783C243.543 145.783 243.604 145.759 243.65 145.715L246.112 143.247V146.022C246.112 146.086 246.137 146.147 246.182 146.192C246.227 146.237 246.287 146.262 246.351 146.262C246.414 146.262 246.475 146.237 246.52 146.192C246.565 146.147 246.59 146.086 246.59 146.022V143.247L249.057 145.715C249.103 145.759 249.164 145.783 249.227 145.783C249.29 145.783 249.351 145.759 249.397 145.715C249.441 145.67 249.466 145.609 249.466 145.545C249.466 145.482 249.441 145.421 249.397 145.375L246.93 142.907H249.703C249.767 142.907 249.828 142.882 249.873 142.837C249.917 142.792 249.943 142.731 249.943 142.667C249.939 142.606 249.912 142.549 249.868 142.507C249.823 142.465 249.764 142.442 249.703 142.442Z" fill="#1B51E5"/>
<path d="M259.76 142.442H256.987L259.454 139.978C259.498 139.933 259.523 139.872 259.523 139.808C259.523 139.745 259.498 139.684 259.454 139.638C259.431 139.616 259.405 139.598 259.376 139.586C259.347 139.573 259.315 139.567 259.284 139.567C259.252 139.567 259.221 139.573 259.192 139.586C259.162 139.598 259.136 139.616 259.114 139.638L256.647 142.106V139.326C256.647 139.263 256.622 139.202 256.577 139.157C256.532 139.112 256.471 139.087 256.408 139.087C256.345 139.088 256.285 139.114 256.24 139.158C256.195 139.203 256.17 139.263 256.168 139.326V142.106L253.707 139.624C253.685 139.601 253.658 139.583 253.629 139.571C253.6 139.559 253.568 139.553 253.537 139.553C253.505 139.553 253.474 139.559 253.445 139.571C253.416 139.583 253.389 139.601 253.367 139.624C253.323 139.669 253.298 139.73 253.298 139.794C253.298 139.857 253.323 139.918 253.367 139.964L255.833 142.427H253.056C252.992 142.429 252.932 142.454 252.888 142.499C252.843 142.544 252.817 142.604 252.816 142.667C252.816 142.731 252.841 142.792 252.886 142.837C252.931 142.882 252.992 142.907 253.056 142.907H255.833L253.367 145.375C253.323 145.421 253.298 145.482 253.298 145.545C253.298 145.609 253.323 145.67 253.367 145.715C253.413 145.759 253.474 145.783 253.537 145.783C253.6 145.783 253.661 145.759 253.707 145.715L256.168 143.247V146.022C256.168 146.086 256.194 146.147 256.239 146.192C256.283 146.237 256.344 146.262 256.408 146.262C256.471 146.262 256.532 146.237 256.577 146.192C256.622 146.147 256.647 146.086 256.647 146.022V143.247L259.114 145.715C259.16 145.759 259.221 145.783 259.284 145.783C259.347 145.783 259.408 145.759 259.454 145.715C259.498 145.67 259.523 145.609 259.523 145.545C259.523 145.482 259.498 145.421 259.454 145.375L256.987 142.907H259.76C259.824 142.907 259.885 142.882 259.929 142.837C259.974 142.792 260 142.731 260 142.667C259.996 142.606 259.969 142.549 259.925 142.507C259.88 142.465 259.821 142.442 259.76 142.442Z" fill="#1B51E5"/>
<path d="M269.817 142.442H267.044L269.511 139.978C269.555 139.933 269.579 139.872 269.579 139.808C269.579 139.745 269.555 139.684 269.511 139.638C269.488 139.616 269.462 139.598 269.433 139.586C269.403 139.573 269.372 139.567 269.341 139.567C269.309 139.567 269.278 139.573 269.248 139.586C269.219 139.598 269.193 139.616 269.171 139.638L266.704 142.106V139.326C266.704 139.263 266.679 139.202 266.634 139.157C266.589 139.112 266.528 139.087 266.465 139.087C266.402 139.088 266.341 139.114 266.297 139.158C266.252 139.203 266.227 139.263 266.225 139.326V142.106L263.764 139.624C263.741 139.601 263.715 139.583 263.686 139.571C263.657 139.559 263.625 139.553 263.594 139.553C263.562 139.553 263.531 139.559 263.502 139.571C263.472 139.583 263.446 139.601 263.424 139.624C263.38 139.669 263.355 139.73 263.355 139.794C263.355 139.857 263.38 139.918 263.424 139.964L265.89 142.427H263.112C263.049 142.429 262.989 142.454 262.944 142.499C262.9 142.544 262.874 142.604 262.873 142.667C262.873 142.731 262.898 142.792 262.943 142.837C262.988 142.882 263.049 142.907 263.112 142.907H265.89L263.424 145.375C263.38 145.421 263.355 145.482 263.355 145.545C263.355 145.609 263.38 145.67 263.424 145.715C263.47 145.759 263.531 145.783 263.594 145.783C263.657 145.783 263.718 145.759 263.764 145.715L266.225 143.247V146.022C266.225 146.086 266.251 146.147 266.295 146.192C266.34 146.237 266.401 146.262 266.465 146.262C266.528 146.262 266.589 146.237 266.634 146.192C266.679 146.147 266.704 146.086 266.704 146.022V143.247L269.171 145.715C269.217 145.759 269.277 145.783 269.341 145.783C269.404 145.783 269.464 145.759 269.511 145.715C269.555 145.67 269.579 145.609 269.579 145.545C269.579 145.482 269.555 145.421 269.511 145.375L267.044 142.907H269.817C269.881 142.907 269.941 142.882 269.986 142.837C270.031 142.792 270.056 142.731 270.056 142.667C270.053 142.606 270.026 142.549 269.981 142.507C269.937 142.465 269.878 142.442 269.817 142.442Z" fill="#1B51E5"/>
<path d="M279.874 142.442H277.101L279.567 139.978C279.612 139.933 279.636 139.872 279.636 139.808C279.636 139.745 279.612 139.684 279.567 139.638C279.545 139.616 279.519 139.598 279.49 139.586C279.46 139.573 279.429 139.567 279.397 139.567C279.366 139.567 279.335 139.573 279.305 139.586C279.276 139.598 279.25 139.616 279.227 139.638L276.761 142.106V139.326C276.761 139.263 276.736 139.202 276.691 139.157C276.646 139.112 276.585 139.087 276.522 139.087C276.459 139.088 276.398 139.114 276.354 139.158C276.309 139.203 276.283 139.263 276.282 139.326V142.106L273.821 139.624C273.798 139.601 273.772 139.583 273.743 139.571C273.714 139.559 273.682 139.553 273.651 139.553C273.619 139.553 273.588 139.559 273.559 139.571C273.529 139.583 273.503 139.601 273.481 139.624C273.436 139.669 273.412 139.73 273.412 139.794C273.412 139.857 273.436 139.918 273.481 139.964L275.947 142.427H273.169C273.106 142.429 273.046 142.454 273.001 142.499C272.957 142.544 272.931 142.604 272.93 142.667C272.93 142.731 272.955 142.792 273 142.837C273.045 142.882 273.106 142.907 273.169 142.907H275.947L273.481 145.375C273.436 145.421 273.412 145.482 273.412 145.545C273.412 145.609 273.436 145.67 273.481 145.715C273.527 145.759 273.588 145.783 273.651 145.783C273.714 145.783 273.775 145.759 273.821 145.715L276.282 143.247V146.022C276.282 146.086 276.307 146.147 276.352 146.192C276.397 146.237 276.458 146.262 276.522 146.262C276.585 146.262 276.646 146.237 276.691 146.192C276.736 146.147 276.761 146.086 276.761 146.022V143.247L279.227 145.715C279.274 145.759 279.334 145.783 279.397 145.783C279.461 145.783 279.521 145.759 279.567 145.715C279.612 145.67 279.636 145.609 279.636 145.545C279.636 145.482 279.612 145.421 279.567 145.375L277.101 142.907H279.874C279.938 142.907 279.998 142.882 280.043 142.837C280.088 142.792 280.113 142.731 280.113 142.667C280.11 142.606 280.083 142.549 280.038 142.507C279.994 142.465 279.935 142.442 279.874 142.442Z" fill="#1B51E5"/>
<path d="M289.931 142.442H287.158L289.624 139.978C289.669 139.933 289.693 139.872 289.693 139.808C289.693 139.745 289.669 139.684 289.624 139.638C289.602 139.616 289.576 139.598 289.546 139.586C289.517 139.573 289.486 139.567 289.454 139.567C289.423 139.567 289.391 139.573 289.362 139.586C289.333 139.598 289.307 139.616 289.284 139.638L286.818 142.106V139.326C286.818 139.263 286.793 139.202 286.748 139.157C286.703 139.112 286.642 139.087 286.579 139.087C286.515 139.088 286.455 139.114 286.411 139.158C286.366 139.203 286.34 139.263 286.339 139.326V142.106L283.878 139.624C283.855 139.601 283.829 139.583 283.8 139.571C283.77 139.559 283.739 139.553 283.708 139.553C283.676 139.553 283.645 139.559 283.615 139.571C283.586 139.583 283.56 139.601 283.538 139.624C283.493 139.669 283.469 139.73 283.469 139.794C283.469 139.857 283.493 139.918 283.538 139.964L286.004 142.427H283.226C283.163 142.429 283.103 142.454 283.058 142.499C283.014 142.544 282.988 142.604 282.987 142.667C282.987 142.731 283.012 142.792 283.057 142.837C283.102 142.882 283.163 142.907 283.226 142.907H286.004L283.538 145.375C283.493 145.421 283.469 145.482 283.469 145.545C283.469 145.609 283.493 145.67 283.538 145.715C283.584 145.759 283.644 145.783 283.708 145.783C283.771 145.783 283.831 145.759 283.878 145.715L286.339 143.247V146.022C286.339 146.086 286.364 146.147 286.409 146.192C286.454 146.237 286.515 146.262 286.579 146.262C286.642 146.262 286.703 146.237 286.748 146.192C286.793 146.147 286.818 146.086 286.818 146.022V143.247L289.284 145.715C289.33 145.759 289.391 145.783 289.454 145.783C289.517 145.783 289.578 145.759 289.624 145.715C289.669 145.67 289.693 145.609 289.693 145.545C289.693 145.482 289.669 145.421 289.624 145.375L287.158 142.907H289.931C289.994 142.907 290.055 142.882 290.1 142.837C290.145 142.792 290.17 142.731 290.17 142.667C290.167 142.606 290.14 142.549 290.095 142.507C290.051 142.465 289.992 142.442 289.931 142.442Z" fill="#1B51E5"/>
<path d="M299.988 142.442H297.215L299.681 139.978C299.725 139.933 299.75 139.872 299.75 139.808C299.75 139.745 299.725 139.684 299.681 139.638C299.659 139.616 299.633 139.598 299.603 139.586C299.574 139.573 299.543 139.567 299.511 139.567C299.48 139.567 299.448 139.573 299.419 139.586C299.39 139.598 299.363 139.616 299.341 139.638L296.875 142.106V139.326C296.875 139.263 296.85 139.202 296.805 139.157C296.76 139.112 296.699 139.087 296.635 139.087C296.572 139.088 296.512 139.114 296.467 139.158C296.423 139.203 296.397 139.263 296.396 139.326V142.106L293.934 139.624C293.912 139.601 293.886 139.583 293.857 139.571C293.827 139.559 293.796 139.553 293.764 139.553C293.733 139.553 293.702 139.559 293.672 139.571C293.643 139.583 293.617 139.601 293.594 139.624C293.55 139.669 293.526 139.73 293.526 139.794C293.526 139.857 293.55 139.918 293.594 139.964L296.061 142.427H293.283C293.22 142.429 293.16 142.454 293.115 142.499C293.071 142.544 293.045 142.604 293.044 142.667C293.044 142.731 293.069 142.792 293.114 142.837C293.159 142.882 293.22 142.907 293.283 142.907H296.061L293.594 145.375C293.55 145.421 293.526 145.482 293.526 145.545C293.526 145.609 293.55 145.67 293.594 145.715C293.641 145.759 293.701 145.783 293.764 145.783C293.828 145.783 293.888 145.759 293.934 145.715L296.396 143.247V146.022C296.396 146.086 296.421 146.147 296.466 146.192C296.511 146.237 296.572 146.262 296.635 146.262C296.699 146.262 296.76 146.237 296.805 146.192C296.85 146.147 296.875 146.086 296.875 146.022V143.247L299.341 145.715C299.387 145.759 299.448 145.783 299.511 145.783C299.574 145.783 299.635 145.759 299.681 145.715C299.725 145.67 299.75 145.609 299.75 145.545C299.75 145.482 299.725 145.421 299.681 145.375L297.215 142.907H299.988C300.051 142.907 300.112 142.882 300.157 142.837C300.202 142.792 300.227 142.731 300.227 142.667C300.224 142.606 300.197 142.549 300.152 142.507C300.108 142.465 300.049 142.442 299.988 142.442Z" fill="#1B51E5"/>
<path d="M310.045 142.442H307.272L309.738 139.978C309.782 139.933 309.807 139.872 309.807 139.808C309.807 139.745 309.782 139.684 309.738 139.638C309.716 139.616 309.689 139.598 309.66 139.586C309.631 139.573 309.6 139.567 309.568 139.567C309.537 139.567 309.505 139.573 309.476 139.586C309.447 139.598 309.42 139.616 309.398 139.638L306.932 142.106V139.326C306.932 139.263 306.907 139.202 306.862 139.157C306.817 139.112 306.756 139.087 306.692 139.087C306.629 139.088 306.569 139.114 306.524 139.158C306.48 139.203 306.454 139.263 306.453 139.326V142.106L303.991 139.624C303.969 139.601 303.943 139.583 303.913 139.571C303.884 139.559 303.853 139.553 303.821 139.553C303.79 139.553 303.758 139.559 303.729 139.571C303.7 139.583 303.674 139.601 303.651 139.624C303.607 139.669 303.582 139.73 303.582 139.794C303.582 139.857 303.607 139.918 303.651 139.964L306.118 142.427H303.34C303.277 142.429 303.217 142.454 303.172 142.499C303.127 142.544 303.102 142.604 303.101 142.667C303.101 142.731 303.126 142.792 303.171 142.837C303.216 142.882 303.277 142.907 303.34 142.907H306.118L303.651 145.375C303.607 145.421 303.582 145.482 303.582 145.545C303.582 145.609 303.607 145.67 303.651 145.715C303.697 145.759 303.758 145.783 303.821 145.783C303.884 145.783 303.945 145.759 303.991 145.715L306.453 143.247V146.022C306.453 146.086 306.478 146.147 306.523 146.192C306.568 146.237 306.629 146.262 306.692 146.262C306.756 146.262 306.817 146.237 306.862 146.192C306.907 146.147 306.932 146.086 306.932 146.022V143.247L309.398 145.715C309.444 145.759 309.505 145.783 309.568 145.783C309.631 145.783 309.692 145.759 309.738 145.715C309.782 145.67 309.807 145.609 309.807 145.545C309.807 145.482 309.782 145.421 309.738 145.375L307.272 142.907H310.045C310.108 142.907 310.169 142.882 310.214 142.837C310.259 142.792 310.284 142.731 310.284 142.667C310.28 142.606 310.254 142.549 310.209 142.507C310.165 142.465 310.106 142.442 310.045 142.442Z" fill="#1B51E5"/>
<path d="M320.102 142.442H317.329L319.795 139.978C319.839 139.933 319.864 139.872 319.864 139.808C319.864 139.745 319.839 139.684 319.795 139.638C319.773 139.616 319.746 139.598 319.717 139.586C319.688 139.573 319.657 139.567 319.625 139.567C319.593 139.567 319.562 139.573 319.533 139.586C319.504 139.598 319.477 139.616 319.455 139.638L316.989 142.106V139.326C316.989 139.263 316.963 139.202 316.919 139.157C316.874 139.112 316.813 139.087 316.749 139.087C316.686 139.088 316.626 139.114 316.581 139.158C316.537 139.203 316.511 139.263 316.51 139.326V142.106L314.048 139.624C314.026 139.601 314 139.583 313.97 139.571C313.941 139.559 313.91 139.553 313.878 139.553C313.847 139.553 313.815 139.559 313.786 139.571C313.757 139.583 313.731 139.601 313.708 139.624C313.664 139.669 313.639 139.73 313.639 139.794C313.639 139.857 313.664 139.918 313.708 139.964L316.175 142.427H313.397C313.334 142.429 313.274 142.454 313.229 142.499C313.184 142.544 313.159 142.604 313.158 142.667C313.158 142.731 313.183 142.792 313.228 142.837C313.273 142.882 313.333 142.907 313.397 142.907H316.175L313.708 145.375C313.664 145.421 313.639 145.482 313.639 145.545C313.639 145.609 313.664 145.67 313.708 145.715C313.754 145.759 313.815 145.783 313.878 145.783C313.941 145.783 314.002 145.759 314.048 145.715L316.51 143.247V146.022C316.51 146.086 316.535 146.147 316.58 146.192C316.625 146.237 316.686 146.262 316.749 146.262C316.813 146.262 316.874 146.237 316.919 146.192C316.963 146.147 316.989 146.086 316.989 146.022V143.247L319.455 145.715C319.501 145.759 319.562 145.783 319.625 145.783C319.688 145.783 319.749 145.759 319.795 145.715C319.839 145.67 319.864 145.609 319.864 145.545C319.864 145.482 319.839 145.421 319.795 145.375L317.329 142.907H320.102C320.165 142.907 320.226 142.882 320.271 142.837C320.316 142.792 320.341 142.731 320.341 142.667C320.337 142.606 320.31 142.549 320.266 142.507C320.221 142.465 320.163 142.442 320.102 142.442Z" fill="#1B51E5"/>
<path d="M330.159 142.442H327.386L329.852 139.978C329.896 139.933 329.921 139.872 329.921 139.808C329.921 139.745 329.896 139.684 329.852 139.638C329.83 139.616 329.803 139.598 329.774 139.586C329.745 139.573 329.714 139.567 329.682 139.567C329.65 139.567 329.619 139.573 329.59 139.586C329.561 139.598 329.534 139.616 329.512 139.638L327.046 142.106V139.326C327.046 139.263 327.02 139.202 326.976 139.157C326.931 139.112 326.87 139.087 326.806 139.087C326.743 139.088 326.683 139.114 326.638 139.158C326.594 139.203 326.568 139.263 326.567 139.326V142.106L324.105 139.624C324.083 139.601 324.056 139.583 324.027 139.571C323.998 139.559 323.967 139.553 323.935 139.553C323.904 139.553 323.872 139.559 323.843 139.571C323.814 139.583 323.787 139.601 323.765 139.624C323.721 139.669 323.696 139.73 323.696 139.794C323.696 139.857 323.721 139.918 323.765 139.964L326.232 142.427H323.454C323.391 142.429 323.331 142.454 323.286 142.499C323.241 142.544 323.216 142.604 323.214 142.667C323.214 142.731 323.24 142.792 323.285 142.837C323.329 142.882 323.39 142.907 323.454 142.907H326.232L323.765 145.375C323.721 145.421 323.696 145.482 323.696 145.545C323.696 145.609 323.721 145.67 323.765 145.715C323.811 145.759 323.872 145.783 323.935 145.783C323.998 145.783 324.059 145.759 324.105 145.715L326.567 143.247V146.022C326.567 146.086 326.592 146.147 326.637 146.192C326.682 146.237 326.743 146.262 326.806 146.262C326.87 146.262 326.931 146.237 326.976 146.192C327.02 146.147 327.046 146.086 327.046 146.022V143.247L329.512 145.715C329.558 145.759 329.619 145.783 329.682 145.783C329.745 145.783 329.806 145.759 329.852 145.715C329.896 145.67 329.921 145.609 329.921 145.545C329.921 145.482 329.896 145.421 329.852 145.375L327.386 142.907H330.159C330.222 142.907 330.283 142.882 330.328 142.837C330.373 142.792 330.398 142.731 330.398 142.667C330.394 142.606 330.367 142.549 330.323 142.507C330.278 142.465 330.22 142.442 330.159 142.442Z" fill="#1B51E5"/>
<path d="M407.257 200.748C407.243 200.169 407.171 199.592 407.041 199.027C406.61 197.407 405.638 195.447 404.038 194.958C402.387 194.452 400.792 193.778 399.278 192.945C398.991 187.807 400.169 182.549 398.885 177.569C398.406 175.748 397.616 174.003 397.406 172.139C397.142 169.819 397.774 167.346 396.85 165.208C396.122 163.521 394.523 162.333 392.803 161.709C391.084 161.086 389.231 160.919 387.406 160.751C385.107 160.564 377.665 159.682 375.07 161.738C374.891 161.877 374.73 162.038 374.591 162.218C374.533 162.297 374.482 162.38 374.438 162.467L374.414 162.505C374.362 162.605 374.318 162.709 374.284 162.817C374.248 162.934 374.221 163.054 374.203 163.176C374.203 163.214 374.203 163.253 374.203 163.291C374.203 163.329 374.203 163.459 374.203 163.545V163.675C374.203 163.761 374.203 163.847 374.203 163.938C374.203 164.029 374.203 164.005 374.203 164.039C374.236 164.47 374.299 164.902 374.299 165.328C374.304 165.541 374.284 165.753 374.241 165.961C374.082 166.526 373.811 167.054 373.446 167.514L373.36 167.638C373.307 167.715 373.255 167.787 373.207 167.864C373.159 167.94 373.121 167.998 373.082 168.065C373.044 168.132 373.006 168.175 372.972 168.237C372.926 168.316 372.884 168.398 372.848 168.482C372.848 168.53 372.795 168.573 372.776 168.621C372.716 168.751 372.668 168.885 372.632 169.024C372.52 169.44 372.51 169.877 372.603 170.298C372.732 170.836 372.955 171.347 373.259 171.808C373.379 172.005 373.508 172.196 373.643 172.388L373.978 172.844C373.915 173.288 373.882 173.736 373.877 174.186C373.877 175.686 374.218 177.168 374.873 178.518C375.529 179.868 376.482 181.051 377.66 181.979C377.85 184.003 377.829 186.041 377.598 188.061C377.555 188.483 377.502 188.91 377.445 189.331C377.388 189.753 377.344 190.031 377.287 190.381C376.586 190.481 375.872 190.427 375.194 190.223C374.882 190.083 374.562 189.96 374.236 189.854C372.843 189.504 371.42 190.894 370.041 190.472C370.041 190.539 370.003 190.601 369.979 190.664C369.691 190.485 369.36 190.387 369.021 190.381C368.202 190.343 367.537 189.748 366.943 189.187L365.118 187.467C364.999 187.361 364.893 187.242 364.802 187.112C364.704 186.926 364.63 186.728 364.582 186.523C364.275 185.53 363.533 184.74 362.815 183.987C362.678 183.816 362.498 183.685 362.293 183.609C362.213 183.597 362.133 183.597 362.053 183.609C362.004 183.542 361.952 183.478 361.895 183.417C361.771 183.274 361.638 183.14 361.498 183.014C360.626 182.209 360.54 181.519 359.783 180.618C359.123 179.758 358.525 178.853 357.992 177.91C357.93 177.406 357.844 176.889 357.738 176.366C357.497 175.17 357.146 173.999 356.689 172.867L355.732 170.744L355.622 170.854C354.927 169.819 354.185 169.254 353.519 169.388C352.403 169.618 351.853 171.784 352.03 174.617L352.413 177.493C352.413 177.565 352.446 177.636 352.466 177.708C352.397 178.049 352.361 178.396 352.36 178.744C352.36 179.146 352.734 179.443 352.93 179.803C353.244 180.29 353.411 180.858 353.409 181.437C353.385 181.643 353.323 181.84 353.313 182.041C353.339 182.491 353.496 182.924 353.763 183.287L356.158 187.313L356.637 188.157L356.666 188.195C356.817 188.49 357.037 188.743 357.307 188.933C357.401 189.942 357.668 190.926 358.097 191.843C358.179 192.025 358.27 192.197 358.366 192.37C359.01 193.429 359.768 194.414 360.626 195.308L361.766 196.588C362.891 197.844 364.017 199.104 365.238 200.264C365.675 200.729 366.203 201.1 366.79 201.352C367.077 201.467 367.389 201.504 367.695 201.459C368.001 201.415 368.29 201.29 368.533 201.098C368.533 201.692 368.533 202.287 368.533 202.881C368.71 202.892 368.882 202.95 369.03 203.05C369.178 203.149 369.296 203.286 369.373 203.447C369.451 203.608 369.483 203.786 369.469 203.964C369.454 204.142 369.392 204.312 369.289 204.458C368.284 207.041 367.268 209.649 365.746 211.964C366.82 212.6 367.817 213.361 368.715 214.231C369.297 214.877 369.815 215.578 370.262 216.325C370.305 216.68 370.338 217.03 370.357 217.38C370.712 223.093 368.504 228.763 366.526 234.208C365.956 235.751 365.334 237.366 365.382 238.972C365.006 239.204 364.648 239.461 364.309 239.744C364.702 240.769 364.548 241.685 364.505 242.782C364.491 243.44 364.356 244.09 364.108 244.7C363.899 245.122 363.669 245.533 363.418 245.931C362.178 248.122 361.905 250.724 361.656 253.226C361.507 254.736 362.091 256.581 361.407 257.933C360.224 260.253 359.175 262.726 359.012 265.304C359.006 265.885 358.933 266.462 358.792 267.025C358.643 267.504 358.38 267.912 358.246 268.382C358.108 269.011 358.076 269.659 358.15 270.299C358.241 272.596 357.9 274.89 357.144 277.062C356.546 278.773 355.885 280.604 356.354 282.363C355.199 283.577 354.485 285.146 354.329 286.815C354.316 287.242 354.265 287.668 354.175 288.085C354.029 288.513 353.836 288.922 353.601 289.308C352.637 291.065 352.185 293.058 352.298 295.059C350.861 297.01 350.143 299.416 349.717 301.808C349.29 304.199 349.104 306.634 348.558 308.997C347.83 312.122 346.513 315.281 346.254 318.482C344.703 319.474 344.032 321.396 343.735 323.213C343.438 325.029 343.39 326.937 342.629 328.615C342.236 329.487 341.671 330.268 341.298 331.16C341.036 331.869 340.843 332.603 340.723 333.35C340.493 334.52 340.292 335.823 340.575 336.945C340.168 337.375 339.694 337.736 339.171 338.014C339.248 337.716 339.31 337.419 339.363 337.117C338.127 338.239 335.886 337.846 334.9 339.193C334.603 339.627 334.488 340.159 334.577 340.677C334.667 341.195 334.954 341.658 335.378 341.968C335.687 342.156 336.021 342.3 336.37 342.394C338.764 343.161 341.226 343.933 343.687 343.525C343.978 343.494 344.26 343.404 344.516 343.262C344.836 343.026 345.099 342.721 345.287 342.37C345.656 341.786 346.024 341.201 346.388 340.616C347.27 340.88 348.168 341.089 349.075 341.244C349.166 342.011 349.233 342.778 349.267 343.545C349.745 343.641 350.387 343.669 350.612 343.224C350.681 343.055 350.708 342.873 350.694 342.692C350.694 342.351 350.742 341.901 350.77 341.441H350.866C352.327 341.5 353.781 341.205 355.104 340.583C354.592 336.336 356.282 332.185 357.748 328.169C359.295 323.941 360.621 319.637 361.957 315.333C362.915 312.304 363.974 309.371 364.912 306.337C366.093 302.503 367.28 298.668 368.47 294.834C368.988 293.147 369.51 291.479 370.103 289.801C371.354 286.407 372.837 283.103 374.543 279.913C375.022 279.008 375.501 278.111 375.893 277.172C376.372 276.026 376.712 274.828 377.095 273.644C377.93 271.215 378.935 268.848 380.103 266.56C380.136 266.498 380.16 266.44 380.194 266.383C380.582 267.969 380.97 269.58 381.228 271.176C381.578 273.133 381.606 275.134 381.31 277.1C381.08 278.437 380.644 279.76 380.697 281.116C380.769 282.99 381.769 284.692 382.263 286.499C382.581 287.851 382.76 289.232 382.799 290.621C382.933 292.778 384.102 295.198 383.278 297.197C380.716 303.528 381.956 310.679 380.496 317.327C379.744 320.74 377.44 323.946 377.622 327.436C377.75 329.912 377.967 332.382 378.274 334.845C378.347 335.623 378.55 336.382 378.872 337.093C379.063 337.467 379.283 337.826 379.528 338.167C379.318 338.248 379.14 338.464 378.987 338.919C378.594 340.118 378.987 341.604 380.05 342.275C380.483 342.506 380.951 342.668 381.434 342.754C382.085 342.939 382.759 343.033 383.436 343.032C383.647 343.02 383.856 342.995 384.063 342.955C384.804 343.266 385.56 343.538 386.329 343.77C386.329 343.966 386.367 344.163 386.391 344.359C386.392 344.462 386.415 344.563 386.458 344.657C386.501 344.75 386.563 344.833 386.64 344.901C386.759 344.957 386.892 344.98 387.023 344.968H389.623C389.623 344.753 389.623 344.532 389.623 344.316C389.921 344.347 390.222 344.316 390.506 344.223C390.791 344.131 391.053 343.98 391.276 343.78C391.506 343.486 391.669 343.146 391.755 342.783C392.463 340.377 393.167 337.969 393.866 335.56C394.705 332.897 395.054 330.103 394.896 327.316C393.972 318.482 396.002 309.62 395.341 300.763C394.944 295.439 395.217 290.086 396.156 284.831C396.371 283.642 396.635 282.434 396.73 281.251C396.941 279.017 396.682 276.76 396.84 274.54C396.893 273.764 396.998 272.992 397.094 272.221C397.75 267.431 398.094 262.604 398.124 257.77C398.109 256.168 398.01 254.568 397.827 252.977C398.326 252.85 398.779 252.584 399.134 252.21C399.561 251.654 399.45 250.873 399.446 250.163C399.446 248.467 400.159 246.866 400.734 245.265C401.471 243.057 402.076 240.807 402.544 238.526C403.039 236.688 403.309 234.797 403.349 232.894C403.349 232.703 403.339 232.511 403.32 232.319C403.5 232.194 403.651 232.03 403.761 231.84C403.886 231.559 403.963 231.26 403.99 230.953C404.163 229.731 404.34 228.504 404.512 227.277C404.64 226.398 404.766 225.521 404.891 224.646L406.414 214.01C406.543 213.085 406.677 212.165 406.806 211.245L407.204 208.494C407.247 208.168 407.295 207.842 407.328 207.535C408.497 205.579 407.381 202.972 407.257 200.748ZM394.551 240.568C393.986 239.226 393.459 237.85 393.593 236.403H393.541C393.667 235.958 393.645 235.483 393.479 235.051C393.33 234.701 393.072 234.404 392.913 234.054C392.744 233.627 392.656 233.172 392.655 232.712C392.536 229.797 392.766 226.878 393.34 224.018C393.402 223.682 393.469 223.342 393.531 223.007C393.732 222.89 393.916 222.747 394.077 222.58C394.329 222.293 394.537 221.97 394.695 221.621C395.236 220.533 395.729 219.426 396.184 218.3C396.333 217.936 396.548 217.514 396.917 217.423C396.84 220.227 397.128 223.088 395.988 225.619C395.771 226.027 395.61 226.462 395.509 226.913C395.404 227.627 395.701 228.351 395.595 229.06C395.543 229.429 395.385 229.769 395.322 230.134C395.275 230.313 395.276 230.501 395.325 230.679C395.373 230.858 395.468 231.02 395.6 231.15C395.664 231.194 395.733 231.23 395.806 231.255C395.777 231.447 395.753 231.644 395.734 231.83C395.696 232.223 395.677 232.593 395.653 232.823C395.543 233.995 395.499 235.173 395.523 236.35C395.523 237.62 395.571 238.89 395.552 240.185C395.57 240.556 395.508 240.927 395.37 241.273C395.275 241.451 395.152 241.613 395.006 241.752C394.867 241.32 394.714 240.942 394.551 240.568Z" fill="url(#paint0_linear)"/>
<path d="M356.748 184.955C358.209 184.656 358.707 181.055 357.859 176.914C357.011 172.773 355.139 169.658 353.678 169.958C352.216 170.258 351.719 173.858 352.567 177.999C353.415 182.141 355.287 185.255 356.748 184.955Z" fill="#FBBEBE"/>
<path d="M379.064 339.011C378.671 340.199 379.064 341.685 380.127 342.332C380.558 342.562 381.021 342.724 381.501 342.811C382.151 342.995 382.823 343.087 383.498 343.085C384.327 343.046 385.122 342.72 385.95 342.605C386.046 342.581 386.147 342.595 386.233 342.644C386.274 342.688 386.305 342.741 386.324 342.799C386.342 342.857 386.347 342.919 386.338 342.979C386.347 343.45 386.382 343.921 386.444 344.388C386.444 344.491 386.467 344.593 386.51 344.686C386.553 344.779 386.615 344.862 386.693 344.93C386.812 344.986 386.944 345.009 387.076 344.997H389.671C389.73 342.715 389.48 340.435 388.929 338.22C388.893 338.05 388.828 337.888 388.738 337.74C388.517 337.499 388.228 337.332 387.909 337.261C387.274 336.997 386.589 336.877 385.902 336.911C385.064 337.022 384.365 337.563 383.652 338.014C382.938 338.464 381.966 338.862 381.099 338.632C380.232 338.402 379.509 337.678 379.064 339.011Z" fill="#3F3D56"/>
<path d="M340.953 336.906C340.223 337.688 339.328 338.298 338.333 338.689L337.893 338.9C337.832 338.923 337.78 338.965 337.744 339.02C337.736 339.057 337.736 339.096 337.744 339.133C337.752 339.171 337.769 339.206 337.792 339.236C338.159 339.803 338.7 340.235 339.335 340.466C339.969 340.697 340.662 340.715 341.307 340.516C341.592 340.444 341.857 340.306 342.078 340.113C342.443 339.68 342.652 339.136 342.672 338.57C342.817 337.985 342.792 337.372 342.6 336.801C341.935 335.301 341.69 335.981 340.953 336.906Z" fill="#FBBEBE"/>
<path d="M350.904 342.811C350.919 342.993 350.891 343.175 350.823 343.343C350.598 343.784 349.971 343.76 349.482 343.664C349.408 342.038 349.211 340.42 348.893 338.824C347.964 338.78 347.293 339.662 346.795 340.453L345.512 342.49C345.326 342.841 345.065 343.146 344.746 343.382C344.489 343.522 344.208 343.612 343.917 343.645C341.465 344.053 338.989 343.281 336.624 342.514C336.275 342.421 335.941 342.279 335.632 342.092C335.21 341.782 334.924 341.32 334.835 340.804C334.746 340.287 334.86 339.756 335.153 339.322C336.145 337.98 338.372 338.364 339.607 337.252C339.478 338.034 339.266 338.8 338.975 339.538C340.627 339.289 341.738 337.774 343.07 336.763C343.404 336.479 343.807 336.287 344.238 336.207C344.561 336.18 344.886 336.214 345.196 336.307C346.731 336.694 348.167 337.401 349.41 338.383C349.913 338.78 350.698 339.341 350.919 339.955C351.153 340.688 350.904 342.03 350.904 342.811Z" fill="#3F3D56"/>
<path d="M383.848 184.673C389.312 184.673 393.742 180.239 393.742 174.77C393.742 169.302 389.312 164.868 383.848 164.868C378.384 164.868 373.954 169.302 373.954 174.77C373.954 180.239 378.384 184.673 383.848 184.673Z" fill="#FBBEBE"/>
<path d="M403.339 233.235C403.299 235.128 403.031 237.009 402.539 238.838C402.071 241.109 401.466 243.35 400.729 245.548C400.159 247.144 399.446 248.745 399.45 250.437C399.45 251.141 399.565 251.923 399.134 252.479C398.751 252.869 398.267 253.146 397.736 253.279C397.471 253.349 397.227 253.481 397.022 253.663C396.817 253.846 396.658 254.073 396.558 254.329C396.108 253.656 395.772 252.915 395.562 252.133C394.703 249.501 393.905 246.853 393.167 244.191C393.1 244.038 393.071 243.871 393.082 243.704C393.094 243.537 393.146 243.375 393.234 243.233C393.356 243.127 393.498 243.047 393.651 242.998C394.142 242.798 394.592 242.509 394.978 242.145C395.159 241.984 395.308 241.791 395.418 241.575C395.557 241.231 395.621 240.862 395.605 240.491C395.605 239.221 395.605 237.956 395.571 236.686C395.551 235.513 395.596 234.34 395.706 233.172C395.706 232.942 395.749 232.573 395.787 232.18C395.859 231.428 396.002 230.556 396.409 230.263C397.018 229.856 398.837 230.402 399.527 230.498C400.715 230.661 401.922 230.853 403.081 231.078C403.249 231.785 403.336 232.508 403.339 233.235Z" fill="#3F3D56"/>
<path d="M363.389 185.856C363.006 186.623 362.087 186.992 361.378 187.476L358.95 189.144C358.788 189.291 358.598 189.403 358.391 189.473C358.184 189.544 357.966 189.573 357.748 189.557C357.55 189.484 357.369 189.372 357.216 189.228C357.062 189.084 356.938 188.91 356.852 188.718C356.854 188.705 356.854 188.692 356.852 188.679L356.35 187.836L353.955 183.819C353.689 183.46 353.534 183.03 353.51 182.583C353.51 182.377 353.581 182.185 353.601 181.979C353.607 181.4 353.44 180.833 353.122 180.349C352.93 179.99 352.547 179.693 352.557 179.29C352.538 178.761 352.63 178.234 352.825 177.742C353.076 177.287 353.436 176.901 353.874 176.62C354.099 176.457 354.329 176.304 354.568 176.141C354.695 176.054 354.836 175.989 354.985 175.949C355.382 175.868 355.775 176.199 356.177 176.213C357.906 177.373 358.572 179.568 359.932 181.15C360.698 182.051 360.775 182.741 361.641 183.546C361.78 183.671 361.914 183.805 362.044 183.944C362.215 184.131 362.36 184.341 362.475 184.567C362.633 184.979 363.586 185.463 363.389 185.856Z" fill="#3F3D56"/>
<path d="M380.371 184.677C381.085 186.187 381.64 187.846 381.434 189.504C381.392 189.953 381.25 190.387 381.018 190.774C380.328 191.833 378.882 192.025 377.622 192.087C377.357 192.065 377.09 192.096 376.836 192.178C376.583 192.26 376.349 192.393 376.147 192.567C375.979 192.811 375.897 193.105 375.913 193.402C375.93 193.698 376.044 193.981 376.238 194.206C376.643 194.638 377.146 194.967 377.704 195.164C379.696 196.041 381.846 196.765 384.011 196.564C385.016 196.468 385.993 196.176 386.994 196.027C388.085 195.909 389.182 195.848 390.28 195.845C391.582 195.797 392.88 195.668 394.178 195.538L397.616 195.198C397.804 195.201 397.987 195.134 398.129 195.011C398.383 194.714 398.057 194.278 397.741 194.052C395.916 192.701 393.594 191.771 392.554 189.739C392.075 188.78 391.927 187.639 391.573 186.604C391.218 185.569 390.653 184.634 390.433 183.58C390.315 182.655 390.262 181.723 390.275 180.79C390.287 179.85 389.945 178.94 389.317 178.24C388.632 177.603 387.641 177.44 386.712 177.402C384.423 177.301 381.985 177.847 380.362 179.463C379.926 179.899 379.552 180.421 379.102 180.814C378.652 181.207 378.039 181.322 378.336 181.84C378.633 182.358 379.217 182.679 379.533 183.134C379.853 183.625 380.133 184.141 380.371 184.677Z" fill="#FBBEBE"/>
<path d="M399.877 198.62C399.273 202.311 398.291 205.929 396.946 209.419C396.27 210.994 395.694 212.611 395.222 214.259C394.853 215.745 394.925 217.337 394.585 218.827C394.163 220.682 393.742 222.542 393.402 224.411C392.832 227.265 392.603 230.178 392.722 233.086C392.723 233.544 392.811 233.998 392.981 234.423C393.139 234.768 393.392 235.066 393.541 235.42C393.652 235.732 393.697 236.063 393.674 236.393C393.651 236.723 393.56 237.045 393.407 237.338C393.161 237.886 392.828 238.391 392.42 238.833C387.957 240.165 383.182 239.729 378.532 240.012C374.246 240.271 369.912 241.153 365.688 240.419C365.209 238.502 366.009 236.494 366.694 234.625C368.681 229.194 370.879 223.539 370.525 217.849C370.488 217.186 370.413 216.525 370.3 215.87C369.605 211.839 370.362 207.664 371.574 203.758C372.326 201.323 372.292 198.73 372.12 196.195C372.034 195.372 372.023 194.542 372.086 193.717C372.155 192.874 372.468 192.07 372.987 191.402C372.987 191.368 373.03 191.335 373.054 191.301C373.077 191.268 373.264 191.272 373.413 191.301C373.451 191.317 373.491 191.326 373.532 191.326C373.574 191.326 373.614 191.317 373.652 191.301L373.705 191.268C373.725 191.253 373.749 191.245 373.774 191.245C373.799 191.245 373.823 191.253 373.844 191.268C373.954 191.335 374.016 191.565 374.256 191.608C374.609 191.662 374.966 191.695 375.324 191.709C375.754 191.721 376.181 191.782 376.597 191.891H376.655C377.278 191.996 377.917 191.941 378.513 191.733C378.91 191.633 379.293 191.485 379.653 191.292C379.758 191.177 380.419 191.071 380.553 190.99C380.989 190.726 380.893 189.489 380.984 188.981C381.034 188.472 381.155 187.972 381.343 187.496C381.561 187.144 381.862 186.852 382.22 186.643C382.577 186.435 382.98 186.318 383.393 186.302C384.218 186.282 385.042 186.356 385.85 186.523C387.636 186.777 389.465 186.734 391.218 187.146C392.099 187.352 393.062 187.663 393.871 187.261C394.092 187.313 394.125 187.505 394.125 187.74C394.104 187.963 394.06 188.183 393.991 188.397C393.685 189.72 394.724 190.937 395.682 191.896C396.086 192.347 396.564 192.728 397.094 193.022C397.573 193.242 398.052 193.333 398.531 193.573C398.919 193.78 399.248 194.082 399.489 194.45C399.765 194.872 399.951 195.347 400.035 195.845C400.138 196.772 400.084 197.71 399.877 198.62Z" fill="#3F3D56"/>
<path opacity="0.1" d="M399.877 198.62C399.273 202.311 398.291 205.929 396.946 209.419C396.27 210.994 395.694 212.611 395.222 214.26C394.853 215.745 394.925 217.337 394.585 218.827C394.163 220.682 393.742 222.542 393.402 224.411C393.301 224.469 393.196 224.521 393.091 224.569C392.495 224.854 391.863 225.057 391.213 225.173C390.046 225.314 388.864 225.276 387.708 225.058L380.874 224.143C378.144 223.774 375.237 223.328 373.212 221.478C372.086 220.462 371.349 219.12 370.539 217.825C370.502 217.162 370.427 216.501 370.314 215.846C369.62 211.815 370.376 207.64 371.588 203.734C372.34 201.299 372.306 198.706 372.134 196.171C372.049 195.348 372.037 194.518 372.101 193.693C372.17 192.85 372.483 192.046 373.001 191.378C373.141 191.337 373.283 191.305 373.427 191.282C373.523 191.263 373.621 191.25 373.719 191.244H373.858C374.019 191.244 374.18 191.264 374.337 191.301C374.663 191.405 374.983 191.528 375.295 191.67H375.352C375.763 191.806 376.194 191.867 376.626 191.852C377.258 191.852 377.91 191.752 378.542 191.709C379.323 191.587 380.122 191.73 380.812 192.116C381.257 192.474 381.679 192.86 382.076 193.271C382.555 193.648 383.094 193.941 383.671 194.139C387.793 195.714 392.367 195.617 396.419 193.87C396.808 193.649 397.25 193.536 397.698 193.544C398.028 193.609 398.342 193.743 398.617 193.937C398.905 194.105 399.187 194.268 399.479 194.417C399.755 194.839 399.941 195.314 400.025 195.811C400.135 196.749 400.085 197.699 399.877 198.62Z" fill="black"/>
<path d="M404.048 195.447C402.141 194.864 400.309 194.06 398.588 193.051C398.312 192.858 397.999 192.724 397.669 192.658C397.22 192.652 396.778 192.765 396.386 192.984C392.335 194.73 387.763 194.826 383.642 193.252C383.066 193.052 382.528 192.759 382.047 192.384C381.649 191.975 381.227 191.589 380.783 191.229C379.207 190.208 377.028 191.407 375.266 190.75C374.953 190.61 374.634 190.487 374.308 190.381C372.915 190.031 371.497 191.421 370.127 190.999C369.618 192.385 369.241 193.817 369.002 195.275C368.807 196.948 368.703 198.632 368.691 200.317C368.691 201.328 368.643 202.339 368.691 203.351C368.86 203.378 369.021 203.441 369.164 203.534C369.308 203.627 369.43 203.749 369.524 203.892C369.587 204.059 369.613 204.238 369.599 204.416C369.586 204.594 369.534 204.767 369.447 204.923C368.446 207.497 367.431 210.099 365.913 212.405C366.983 213.043 367.976 213.802 368.873 214.667C370.549 216.44 371.373 218.928 373.183 220.567C375.223 222.412 378.13 222.863 380.845 223.227L387.679 224.143C388.837 224.359 390.02 224.4 391.189 224.262C391.838 224.144 392.468 223.939 393.062 223.654C393.45 223.491 393.804 223.257 394.106 222.963C394.358 222.677 394.567 222.353 394.724 222.005C395.265 220.922 395.758 219.815 396.213 218.693C396.371 218.295 396.611 217.83 397.042 217.797C399.58 215.506 401.974 213.157 404.512 210.866C405.532 210.02 406.447 209.055 407.237 207.99C408.497 206.126 407.352 203.485 407.237 201.232C407.223 200.656 407.151 200.083 407.022 199.521C406.61 197.887 405.643 195.931 404.048 195.447Z" fill="#1B51E5"/>
<path opacity="0.1" d="M363.389 185.856C363.006 186.623 362.087 186.992 361.378 187.476L358.95 189.144C358.788 189.291 358.598 189.403 358.391 189.473C358.184 189.544 357.966 189.573 357.748 189.557C357.55 189.484 357.369 189.372 357.215 189.228C357.062 189.084 356.938 188.91 356.852 188.718C356.852 188.608 356.852 188.488 356.852 188.373C356.834 187.985 356.886 187.597 357.006 187.227C357.243 186.685 357.612 186.211 358.078 185.847C358.98 184.992 360.052 184.339 361.225 183.93C361.407 183.859 361.606 183.839 361.799 183.872C361.874 183.892 361.945 183.922 362.01 183.963C362.181 184.15 362.326 184.36 362.441 184.586C362.633 184.979 363.586 185.463 363.389 185.856Z" fill="black"/>
<path d="M369.107 190.908C368.293 190.87 367.628 190.28 367.034 189.72L365.219 188.032C365.097 187.93 364.991 187.81 364.903 187.678C364.805 187.491 364.731 187.293 364.682 187.088C364.298 186.12 363.694 185.254 362.92 184.558C362.785 184.386 362.604 184.256 362.398 184.184C362.203 184.148 362.002 184.168 361.819 184.241C360.646 184.65 359.573 185.303 358.672 186.158C358.206 186.523 357.837 186.997 357.599 187.539C357.479 187.908 357.427 188.296 357.446 188.684C357.457 189.951 357.742 191.2 358.279 192.346C358.361 192.523 358.452 192.701 358.548 192.873C359.187 193.93 359.942 194.913 360.798 195.802L361.938 197.077C363.059 198.333 364.179 199.588 365.396 200.743C365.832 201.209 366.36 201.578 366.948 201.827C367.242 201.947 367.564 201.984 367.879 201.933C368.193 201.882 368.487 201.746 368.729 201.539C368.958 201.273 369.131 200.963 369.237 200.628C369.974 198.711 370.673 196.717 370.716 194.652C370.727 193.824 370.692 192.997 370.611 192.174C370.539 191.301 369.922 190.961 369.107 190.908Z" fill="#1B51E5"/>
<path d="M398.129 258.01C398.101 262.831 397.759 267.645 397.104 272.422C397.008 273.194 396.903 273.965 396.85 274.737C396.692 276.975 396.951 279.223 396.74 281.447C396.63 282.65 396.381 283.844 396.17 285.018C395.234 290.259 394.961 295.597 395.356 300.907C396.017 309.74 393.991 318.578 394.911 327.388C395.022 329.101 394.927 330.821 394.628 332.511C394.457 333.56 394.209 334.595 393.886 335.608C393.187 338.007 392.484 340.404 391.779 342.797C391.696 343.161 391.532 343.502 391.3 343.794C391.055 344.005 390.769 344.162 390.459 344.254C390.149 344.346 389.824 344.37 389.504 344.326C386.741 344.24 384.14 343.046 381.631 341.882C381.342 341.768 381.075 341.606 380.84 341.402C380.318 340.861 380.362 340.007 380.132 339.293C379.902 338.579 379.279 337.908 378.925 337.175C378.633 336.481 378.457 335.745 378.403 334.994C378.084 332.54 377.866 330.076 377.752 327.603C377.57 324.124 379.868 320.922 380.625 317.538C382.062 310.885 380.845 303.754 383.398 297.441C384.202 295.447 383.034 293.032 382.919 290.884C382.878 289.499 382.698 288.122 382.383 286.772C381.904 284.97 380.893 283.273 380.821 281.404C380.769 280.052 381.204 278.734 381.43 277.402C381.728 275.441 381.701 273.444 381.348 271.492C381.094 269.882 380.706 268.271 380.318 266.699L380.232 266.877C379.065 269.159 378.062 271.521 377.23 273.946C376.846 275.12 376.511 276.319 376.032 277.459C375.64 278.418 375.156 279.295 374.682 280.196C372.981 283.374 371.501 286.665 370.252 290.046C369.658 291.704 369.136 293.401 368.619 295.064L365.07 306.567C364.112 309.591 363.064 312.515 362.125 315.535C360.799 319.848 359.472 324.124 357.93 328.341C356.493 332.344 354.784 336.489 355.296 340.717C353.975 341.338 352.525 341.632 351.067 341.575C348.599 341.356 346.178 340.768 343.884 339.83C342.969 339.49 342.021 339.106 341.403 338.354C340.34 337.055 340.603 335.152 340.924 333.499C341.045 332.753 341.237 332.021 341.499 331.313C341.863 330.431 342.457 329.65 342.83 328.778C343.582 327.105 343.63 325.212 343.927 323.395C344.224 321.579 344.885 319.661 346.436 318.674C346.7 315.482 348.012 312.333 348.735 309.213C349.281 306.85 349.463 304.42 349.894 302.023C350.325 299.627 351.019 297.23 352.466 295.289C352.352 293.288 352.803 291.294 353.768 289.538C354.001 289.152 354.193 288.742 354.338 288.315C354.427 287.899 354.479 287.476 354.491 287.05C354.65 285.385 355.361 283.82 356.512 282.607C356.033 280.858 356.699 279.031 357.298 277.335C358.052 275.17 358.393 272.882 358.303 270.591C358.229 269.951 358.26 269.304 358.394 268.674C358.529 268.195 358.792 267.787 358.945 267.327C359.082 266.764 359.154 266.186 359.161 265.606C359.347 263.013 360.396 260.569 361.555 258.254C362.245 256.902 361.661 255.067 361.804 253.562C362.053 251.06 362.326 248.472 363.567 246.291C363.796 245.879 364.045 245.486 364.251 245.059C364.501 244.45 364.636 243.8 364.649 243.142C364.692 242.044 364.845 241.134 364.453 240.113C367.015 237.98 370.511 237.381 373.844 237.237C377.177 237.093 380.548 237.395 383.81 236.686C384.767 236.47 385.725 236.173 386.736 236.029C389.03 235.694 391.357 236.216 393.622 236.734C393.464 238.172 393.991 239.552 394.58 240.889C396.88 246.306 398.086 252.124 398.129 258.01Z" fill="#33313F"/>
<path opacity="0.1" d="M386.851 259.107L381.348 271.492C381.094 269.882 380.706 268.271 380.318 266.699L380.232 266.877V266.618L383.23 260.018L386.851 259.107Z" fill="black"/>
<path opacity="0.1" d="M403.339 233.235C403.022 233.473 402.643 233.614 402.247 233.642C401.641 233.664 401.035 233.581 400.456 233.398L396.146 232.319C396.011 232.286 395.879 232.24 395.753 232.18C395.825 231.428 395.969 230.556 396.376 230.263C396.984 229.856 398.804 230.402 399.494 230.498C400.681 230.661 401.888 230.853 403.047 231.078C403.227 231.783 403.325 232.507 403.339 233.235Z" fill="black"/>
<path d="M406.984 204.717C407.075 205.115 407.204 205.508 407.281 205.91C407.409 206.898 407.375 207.9 407.18 208.877L406.787 211.619L406.395 214.375L404.876 224.981L404.503 227.608L403.976 231.275C403.951 231.58 403.873 231.878 403.746 232.156C403.589 232.417 403.37 232.634 403.109 232.789C402.847 232.944 402.551 233.031 402.247 233.043C401.641 233.062 401.035 232.98 400.456 232.799L396.146 231.715C395.957 231.682 395.778 231.608 395.619 231.5C395.488 231.371 395.392 231.209 395.344 231.032C395.295 230.854 395.294 230.667 395.342 230.488C395.404 230.124 395.562 229.784 395.614 229.42C395.72 228.71 395.423 227.982 395.528 227.277C395.632 226.829 395.793 226.395 396.007 225.988C397.444 222.81 396.611 219.1 397.099 215.649C397.539 212.933 398.685 210.381 400.423 208.249C401.495 206.903 402.727 205.693 404.091 204.645C404.627 204.228 405.48 203.37 406.155 203.207C407.022 203.025 406.84 204.113 406.984 204.717Z" fill="#1B51E5"/>
<path d="M374.366 163.43C374.05 164.437 374.543 165.544 374.318 166.57C374.074 167.701 373.01 168.487 372.709 169.623C372.23 171.353 373.695 172.93 374.768 174.368C378.743 179.707 378.221 187.098 376.861 193.611C375.766 198.837 374.253 203.966 372.335 208.949C371.737 210.497 371.076 212.069 369.898 213.229C372.101 212.596 374.442 211.959 376.65 212.572C379.447 213.349 381.861 216.066 384.696 215.448C386.4 215.07 387.598 213.555 389.13 212.716C392.004 211.168 395.466 212.141 398.67 212.639C399.36 212.802 400.083 212.766 400.753 212.534C401.266 212.258 401.7 211.858 402.017 211.369C403.447 209.533 404.304 207.316 404.479 204.995C404.555 203.839 404.384 202.68 403.979 201.595C403.574 200.51 402.943 199.524 402.128 198.702C401.448 198.059 400.633 197.542 400.111 196.784C399.604 195.9 399.332 194.9 399.321 193.88C398.943 188.608 400.226 183.225 398.905 178.125C398.426 176.309 397.645 174.569 397.434 172.709C397.171 170.394 397.798 167.916 396.879 165.798C396.156 164.116 394.561 162.922 392.842 162.309C391.122 161.695 389.283 161.523 387.459 161.35C384.834 161.13 375.462 160.003 374.366 163.43Z" fill="#33313F"/>
<g opacity="0.1">
<path opacity="0.1" d="M376.861 193.611C375.772 198.816 374.266 203.924 372.359 208.887C372.69 208.23 372.967 207.54 373.231 206.854C375.151 201.873 376.664 196.743 377.756 191.517C379.121 184.999 379.643 177.617 375.668 172.273C374.711 170.998 373.48 169.618 373.523 168.123C373.169 168.575 372.894 169.084 372.709 169.628C372.23 171.358 373.695 172.935 374.768 174.373C378.743 179.707 378.221 187.098 376.861 193.611Z" fill="black"/>
<path opacity="0.1" d="M374.375 166.086C374.76 165.608 375.046 165.059 375.218 164.47C375.292 163.758 375.273 163.04 375.161 162.333C374.792 162.61 374.515 162.993 374.366 163.43C374.083 164.279 374.409 165.199 374.375 166.086Z" fill="black"/>
<path opacity="0.1" d="M402.918 209.26C402.601 209.747 402.166 210.146 401.653 210.42C400.984 210.657 400.26 210.694 399.57 210.526C396.366 210.046 392.866 209.059 390.031 210.607C388.493 211.441 387.301 212.956 385.591 213.339C382.761 213.972 380.347 211.254 377.55 210.463C375.568 209.912 373.48 210.368 371.483 210.943C371.086 211.79 370.55 212.564 369.898 213.234C372.101 212.601 374.442 211.964 376.65 212.577C379.447 213.354 381.861 216.071 384.696 215.453C386.4 215.074 387.598 213.56 389.13 212.721C392.004 211.173 395.466 212.146 398.67 212.644C399.36 212.807 400.083 212.771 400.753 212.539C401.266 212.263 401.7 211.862 402.017 211.374C402.885 210.228 403.555 208.945 404 207.578C403.68 208.164 403.318 208.726 402.918 209.26Z" fill="black"/>
</g>
<defs>
<linearGradient id="paint0_linear" x1="334.579" y1="252.68" x2="407.85" y2="252.68" gradientUnits="userSpaceOnUse">
<stop stop-color="#808080" stop-opacity="0.25"/>
<stop offset="0.54" stop-color="#808080" stop-opacity="0.12"/>
<stop offset="1" stop-color="#808080" stop-opacity="0.1"/>
</linearGradient>
</defs>
</svg>
