<svg width="375" height="750" viewBox="0 0 375 750" fill="none" xmlns="http://www.w3.org/2000/svg">
<path opacity="0.2" d="M-142.52 278.197C-165.072 296.578 -186.92 317.146 -200.648 343.095C-220.836 381.245 -220.525 429.235 -199.807 464.61C-182.266 494.603 -152.685 514.133 -127.379 537.301C-96.1995 565.833 -70.9735 600.605 -47.0986 635.965C-34.2698 654.957 -21.334 674.653 -2.59714 687.373C23.4197 705.03 58.4945 706.776 89.1258 695.44C119.757 684.103 145.978 660.701 164.806 632.888C174.826 618.088 183.115 601.362 184.31 583.769C185.575 565.154 178.832 547.16 180.232 528.545C181.529 511.295 189.738 494.979 199.332 480.311C211.858 461.159 227.021 443.868 244.373 428.949C264.041 412.06 286.191 398.584 305.922 381.831C325.653 365.078 343.513 343.867 349.69 318.632C355.5 294.91 350.394 270.587 344.196 247.734C334.105 210.393 320.991 173.935 304.984 138.722C294.237 115.124 281.964 91.85 263.99 73.7848C229.629 39.2396 174.917 27.8875 127.667 45.4899C88.5201 60.0755 56.9082 91.73 29.6855 124.864C4.86053 155.079 -17.7854 193.513 -49.9676 215.939C-80.6742 237.314 -113.062 254.198 -142.52 278.197Z" fill="#1B51E5"/>
<path opacity="0.2" d="M-91.5198 256.197C-114.072 274.578 -135.92 295.146 -149.648 321.095C-169.836 359.245 -169.525 407.235 -148.807 442.61C-131.266 472.603 -101.685 492.133 -76.3785 515.301C-45.1995 543.833 -19.9735 578.605 3.90141 613.965C16.7302 632.957 29.666 652.653 48.4029 665.373C74.4197 683.03 109.495 684.776 140.126 673.44C170.757 662.103 196.978 638.701 215.806 610.888C225.826 596.088 234.115 579.362 235.31 561.769C236.575 543.154 229.832 525.16 231.232 506.545C232.529 489.295 240.738 472.979 250.332 458.311C262.858 439.159 278.021 421.868 295.373 406.949C315.041 390.06 337.191 376.584 356.922 359.831C376.653 343.078 394.513 321.867 400.69 296.632C406.5 272.91 401.394 248.587 395.196 225.734C385.105 188.393 371.991 151.935 355.984 116.722C345.237 93.1244 332.964 69.85 314.99 51.7848C280.629 17.2396 225.917 5.8875 178.667 23.4899C139.52 38.0755 107.908 69.73 80.6855 102.864C55.8605 133.079 33.2146 171.513 1.03236 193.939C-29.6742 215.314 -62.0625 232.198 -91.5198 256.197Z" fill="#1B51E5"/>
</svg>
