<svg width="689" height="900" viewBox="0 0 689 900" fill="none" xmlns="http://www.w3.org/2000/svg">
    <path opacity="0.2" d="M158.48 363.197C135.928 381.578 114.08 402.146 100.352 428.095C80.1641 466.245 80.4754 514.235 101.193 549.61C118.734 579.603 148.315 599.133 173.621 622.301C204.801 650.833 230.027 685.605 253.901 720.965C266.73 739.957 279.666 759.653 298.403 772.373C324.42 790.03 359.495 791.776 390.126 780.44C420.757 769.103 446.978 745.701 465.806 717.888C475.826 703.088 484.115 686.362 485.31 668.769C486.575 650.154 479.832 632.16 481.232 613.545C482.529 596.295 490.738 579.979 500.332 565.311C512.858 546.159 528.021 528.868 545.373 513.949C565.041 497.059 587.191 483.584 606.922 466.831C626.653 450.077 644.513 428.867 650.69 403.632C656.5 379.91 651.394 355.587 645.196 332.734C635.105 295.392 621.991 258.935 605.984 223.722C595.237 200.124 582.964 176.85 564.99 158.785C530.629 124.24 475.917 112.887 428.667 130.49C389.52 145.075 357.908 176.73 330.685 209.864C305.861 240.079 283.215 278.513 251.032 300.939C220.326 322.314 187.938 339.198 158.48 363.197Z" fill="#1B51E5"/>
    <path opacity="0.2" d="M906.691 584.228C942.945 561.413 978.563 535.275 1003.28 499.818C1039.63 447.689 1047.79 377.503 1023.86 322.092C1003.61 275.116 963.892 241.271 931.07 202.875C890.629 155.587 860.008 100.249 831.466 44.2948C816.129 14.2394 800.761 -16.8626 775.664 -38.8119C740.815 -69.2815 689.874 -78.1244 643.078 -67.0524C596.283 -55.9804 553.767 -26.4849 521.261 10.7811C503.963 30.612 488.848 53.5672 483.944 79.0624C478.754 106.038 485.379 133.544 479.991 160.495C475 185.47 460.076 207.841 443.424 227.555C421.682 253.295 396.421 275.843 368.387 294.533C336.615 315.686 301.83 331.406 269.99 352.349C238.149 373.291 208.244 401.084 194.689 436.852C181.941 470.476 185.037 506.937 189.992 541.443C198.036 597.822 210.656 653.451 227.727 707.78C239.196 744.192 252.952 780.405 275.974 810.028C319.986 866.673 397.898 893.076 470.104 875.829C529.926 861.536 581.801 820.948 627.529 777.411C669.228 737.71 709.219 685.607 760.271 658.608C808.979 632.879 859.338 614.015 906.691 584.228Z" fill="#1B51E5"/>
</svg>
