<svg width="30" height="30" viewBox="0 0 30 30" fill="none" xmlns="http://www.w3.org/2000/svg">
<g id="Logo">
<path id="Oval" opacity="0.25" d="M14.684 25.388C20.3283 25.388 24.904 20.8123 24.904 15.168C24.904 9.52365 20.3283 4.948 14.684 4.948C9.03964 4.948 4.46399 9.52365 4.46399 15.168C4.46399 20.8123 9.03964 25.388 14.684 25.388Z" fill="#5E81F4"/>
<path id="Path" opacity="0.5" d="M6.29203 13.2721C3.74888 13.2712 1.45632 11.7394 0.482166 9.39026C-0.491992 7.04108 0.043817 4.33645 1.84003 2.5361C4.29696 0.0804131 8.27911 0.0804131 10.736 2.5361C11.9163 3.71547 12.5795 5.31558 12.5795 6.9841C12.5795 8.65263 11.9163 10.2527 10.736 11.4321C9.56035 12.615 7.95982 13.2777 6.29203 13.2721Z" fill="#5E81F4"/>
<path id="Path_2" opacity="0.5" d="M23.308 29.8962C20.3057 29.8972 17.7209 27.7769 17.1348 24.8323C16.5488 21.8877 18.1248 18.9393 20.8988 17.7908C23.6728 16.6422 26.8718 17.6136 28.5388 20.1106C30.2058 22.6076 29.8764 25.9346 27.752 28.0562C26.5753 29.2376 24.9755 29.9 23.308 29.8962Z" fill="#5E81F4"/>
<path id="Path_3" d="M6.46007 29.8281C3.91546 29.8304 1.61994 28.2999 0.643733 25.95C-0.332477 23.6 0.202824 20.8935 2.00007 19.0921C2.27482 18.8242 2.57338 18.5819 2.89207 18.3681L3.20007 18.1721C3.41607 18.0441 3.64007 17.9281 3.87607 17.8161C3.99607 17.7641 4.11607 17.7081 4.24807 17.6601C4.49365 17.5704 4.74486 17.4969 5.00007 17.4401L5.16007 17.3961C5.18751 17.3863 5.21557 17.3783 5.24407 17.3721L6.66807 17.2681C6.85207 17.2681 7.06807 17.3041 7.26407 17.3321H7.30807H7.49607H7.55607H7.61607H8.00007C10.4618 17.3092 12.8116 16.3007 14.5241 14.5321C16.246 12.7769 17.1889 10.4024 17.1401 7.9441V7.8761V7.8081C17.1259 7.73153 17.1179 7.65395 17.1161 7.5761V7.3841L17.0641 7.2001C17.0641 7.0881 17.0361 6.9681 17.0321 6.8521L17.1281 5.5321V5.5001V5.4761C17.1281 5.4441 17.1881 5.2681 17.1881 5.2681C17.2489 4.99692 17.3264 4.72974 17.4201 4.4681C17.4641 4.3481 17.5201 4.2281 17.5761 4.1081C17.6811 3.87124 17.8013 3.64142 17.9361 3.4201V3.3841C17.9921 3.2921 18.0441 3.2001 18.1081 3.1121C18.3182 2.79543 18.5579 2.49943 18.8241 2.2281C21.285 -0.237295 25.2787 -0.240877 27.7441 2.2201C30.2095 4.68108 30.213 8.67471 27.7521 11.1401C27.4788 11.4057 27.1816 11.6454 26.8641 11.8561C26.7681 11.9241 26.6841 11.9721 26.6001 12.0241L26.5521 12.0521C26.3201 12.1881 26.0961 12.3081 25.8801 12.4081C25.7521 12.4641 25.6361 12.5201 25.5161 12.5641C25.2636 12.6558 25.0058 12.7319 24.7441 12.7921C24.6887 12.8039 24.6339 12.8185 24.5801 12.8361L24.4801 12.8641L23.0841 12.9601C22.9081 12.9601 22.7201 12.9281 22.5241 12.9041H22.4361H22.2561H22.1401H22.0761H21.7641C16.6623 12.9787 12.5777 17.158 12.6201 22.2601V22.3281V22.4001C12.6309 22.4703 12.6376 22.5411 12.6401 22.6121C12.6401 22.6881 12.6401 22.7601 12.6601 22.8321C12.6801 22.9041 12.6601 22.9681 12.6841 23.0401C12.698 23.1436 12.706 23.2477 12.7081 23.3521L12.6081 24.7241C12.6006 24.7606 12.5913 24.7966 12.5801 24.8321L12.5441 24.9561C12.4868 25.2278 12.4107 25.4951 12.3161 25.7561C12.2721 25.8761 12.2121 26.0001 12.1561 26.1241C12.0544 26.3551 11.9409 26.5807 11.8161 26.8001C11.7521 26.9121 11.6921 27.0121 11.6241 27.1081C11.4121 27.4281 11.1697 27.7269 10.9001 28.0001C9.72435 29.1805 8.12611 29.8429 6.46007 29.8401V29.8281Z" fill="#5E81F4"/>
</g>
</svg>
