<svg width="13" height="12" viewBox="0 0 13 12" fill="none" xmlns="http://www.w3.org/2000/svg">
<path id="icon tasks" d="M3.7973 0.640625L2.15668 2.28125L1.51605 1.64062L0.797305 2.35938L1.7973 3.35938L2.15668 3.70312L2.51605 3.35938L4.51605 1.35938L3.7973 0.640625ZM6.15668 1.5V2.5H12.6567V1.5H6.15668ZM3.7973 4.64062L2.15668 6.28125L1.51605 5.64062L0.797305 6.35938L1.7973 7.35938L2.15668 7.70312L2.51605 7.35938L4.51605 5.35938L3.7973 4.64062ZM6.15668 5.5V6.5H12.6567V5.5H6.15668ZM3.7973 8.64062L2.15668 10.2812L1.51605 9.64062L0.797305 10.3594L1.7973 11.3594L2.15668 11.7031L2.51605 11.3594L4.51605 9.35938L3.7973 8.64062ZM6.15668 9.5V10.5H12.6567V9.5H6.15668Z" fill="#8181A5"/>
</svg>
